<?xml version="1.0" encoding="UTF-8"?>
<svg id="svg20" width="400" height="400" version="1.1" viewBox="0 0 105.83 105.83" xmlns="http://www.w3.org/2000/svg">
 <path id="path2" transform="matrix(4.7578 0 0 4.7578 89.627 -319.26)" d="m-7.716 67.103 2.225 2.224-2.225 2.225-2.224-2.225z" fill="#be3729" stroke-width=".09071"/>
 <path id="path3" transform="matrix(4.7578 0 0 4.7578 89.627 -319.26)" d="m-9.94 69.327 2.224 2.225-2.224 2.224-2.225-2.224z" fill="#dc2919" stroke-width=".09071"/>
 <path id="path4" transform="matrix(4.7578 0 0 4.7578 89.627 -319.26)" d="m-12.165 71.552 2.225 2.224-2.225 2.225-2.224-2.225z" fill="#e54b3a" stroke-width=".09071"/>
 <path id="path5" transform="matrix(4.7578 0 0 4.7578 89.627 -319.26)" d="m-14.389 73.776 2.224 2.225-2.224 2.224L-16.613 76z" fill="#e56934" stroke-width=".09071"/>
 <path id="path6" transform="matrix(4.7578 0 0 4.7578 89.627 -319.26)" d="m-16.613 76 2.224 2.225-2.224 2.224-2.225-2.224z" fill="#e57c21" stroke-width=".09071"/>
 <path id="path7" transform="matrix(4.7578 0 0 4.7578 89.627 -319.26)" d="m-14.389 78.225 2.224 2.224-2.224 2.225-2.224-2.225z" fill="#e58a21" stroke-width=".09071"/>
 <path id="path8" transform="matrix(4.7578 0 0 4.7578 89.627 -319.26)" d="m-12.165 80.45 2.225 2.224-2.225 2.224-2.224-2.224z" fill="#f19a11" stroke-width=".09071"/>
 <path id="path9" transform="matrix(4.7578 0 0 4.7578 89.627 -319.26)" d="m-9.94 82.674 2.224 2.224-2.224 2.225-2.225-2.225z" fill="#f0ae0e" stroke-width=".09071"/>
 <path id="path10" transform="matrix(4.7578 0 0 4.7578 89.627 -319.26)" d="m-7.716 84.898 2.225 2.225-2.225 2.224-2.224-2.224z" fill="#f0c30e" stroke-width=".09071"/>
 <path id="path11" transform="matrix(4.7578 0 0 4.7578 89.627 -319.26)" d="m-5.491 82.674 2.224 2.224-2.224 2.225-2.225-2.225z" fill="#f19a11" stroke-width=".09071"/>
 <path id="path12" transform="matrix(4.7578 0 0 4.7578 89.627 -319.26)" d="m-5.491 82.674 2.224 2.224-2.224 2.225-2.225-2.225z" fill="#f0ae0e" stroke-width=".09071"/>
 <path id="path13" transform="matrix(4.7578 0 0 4.7578 89.627 -319.26)" d="m-3.267 80.45 2.224 2.224-2.224 2.224-2.224-2.224z" fill="#f19a11" stroke-width=".09071"/>
 <path id="path14" transform="matrix(4.7578 0 0 4.7578 89.627 -319.26)" d="m-9.94 78.225 2.224 2.224-2.224 2.225-2.225-2.225zm8.897 0 2.225 2.224-2.225 2.225-2.224-2.225z" fill="#e58a21" stroke-width=".09071"/>
 <path id="path15" transform="matrix(4.7578 0 0 4.7578 89.627 -319.26)" d="m-12.165 76 2.225 2.225-2.225 2.224-2.224-2.224zm4.449 0 2.225 2.225-2.225 2.224-2.224-2.224zm8.898 0 2.224 2.225-2.224 2.224-2.225-2.224z" fill="#e57c21" stroke-width=".09071"/>
 <path id="path16" transform="matrix(4.7578 0 0 4.7578 89.627 -319.26)" d="m-1.043 73.776 2.225 2.225-2.225 2.224-2.224-2.224z" fill="#e56934" stroke-width=".09071"/>
 <path id="path17" transform="matrix(4.7578 0 0 4.7578 89.627 -319.26)" d="m-7.716 71.552 2.225 2.224-2.225 2.225-2.224-2.225z" fill="#e54b3a" stroke-width=".09071"/>
 <path id="path18" transform="matrix(4.7578 0 0 4.7578 89.627 -319.26)" d="m-3.267 71.552 2.224 2.224-2.224 2.225-2.224-2.225z" fill="#dc2919" stroke-width=".09071"/>
 <path id="path19" transform="matrix(4.7578 0 0 4.7578 89.627 -319.26)" d="m-3.267 71.552 2.224 2.224-2.224 2.225-2.224-2.225z" fill="#e54b3a" stroke-width=".09071"/>
 <path id="path20" transform="matrix(4.7578 0 0 4.7578 89.627 -319.26)" d="m-5.491 69.327 2.224 2.225-2.224 2.224-2.225-2.224z" fill="#dc2919" stroke-width=".09071"/>
</svg>
