<svg width="480" height="480" viewBox="0 0 127 127" xmlns="http://www.w3.org/2000/svg"><path d="M45.698 48.68 35.083 59.33l1.275 1.043h-4.2l9.254 9.254-7.066 2.883 54.488 54.487H127v-39.98L94.914 54.93l-4.341 2.942-3.108-3.108-2.458 5.637-5.636-5.636-2.792 6.956-6.956-6.956-3.31 9.683-7.617-7.617h-4.845l-8.153-8.153z" fill="#0064dc"/><g fill="#fff" stroke="#0064dc" stroke-width="1.165" aria-label="four"><path d="M34.93 71.934h5.704V59.797h2.785v-4.444h-2.785v-.398c0-1.558.663-2.056 1.724-2.056.53 0 1.128.133 1.658.332l.995-4.179a10.55 10.55 0 0 0-3.515-.596c-4.908 0-6.566 3.15-6.566 6.698v.232l-2.189.166v4.245h2.189zM52.568 72.334c4.245 0 8.224-3.184 8.224-8.689 0-5.504-3.98-8.688-8.224-8.688s-8.224 3.184-8.224 8.688c0 5.505 3.98 8.689 8.224 8.689zm0-4.577c-1.724 0-2.388-1.591-2.388-4.112 0-2.52.664-4.112 2.388-4.112 1.724 0 2.388 1.592 2.388 4.112s-.664 4.112-2.388 4.112zM68.512 72.334c2.255 0 3.78-.995 5.107-2.587h.132l.398 2.189h4.643V55.355h-5.704v10.678c-.73 1.06-1.326 1.459-2.387 1.459-1.128 0-1.658-.53-1.658-2.653v-9.484h-5.704v10.214c0 4.112 1.525 6.765 5.173 6.765zM82.32 71.934h5.704v-9.22c.796-2.055 2.255-2.785 3.448-2.785.73 0 1.26.133 1.858.266l.928-4.908c-.464-.2-1.028-.332-2.056-.332-1.625 0-3.482.995-4.709 3.25h-.133l-.397-2.852H82.32z"/></g></svg>