<svg width="480" height="480" viewBox="0 0 127 127" xmlns="http://www.w3.org/2000/svg"><path style="fill:#fff" d="m172.985 190.702-.004.007 23.943 23.946-11.076 24.522-10.992-10.994h-18.053l23.43 23.43-7.918 17.523 162.941 162.942a214.643 214.643 0 0 0 99.423-102.6l-118.335-118.34-15.077 15.662-19.8-19.801-14.721 21.365L252.2 213.82l-29.726 8.32-31.438-31.437h-18.051zm307.017 184.103v105.191h.002V374.807l-.002-.002z" transform="scale(.26458)"/><g fill="#fff" stroke="#ff8b00" stroke-width="1.165" aria-label="ten" style="fill:#000;stroke:#fff;stroke-opacity:1"><path d="M50.358 244.14c1.824 0 3.05-.332 3.913-.597l-.862-4.112c-.398.133-.929.265-1.46.265-1.06 0-1.989-.597-1.989-2.42v-5.671h3.78v-4.444h-3.78v-4.31h-4.709l-.663 4.31-2.52.2v4.244h2.188v5.77c0 4.046 1.791 6.765 6.102 6.765z" style="fill:#000;stroke:#fff;stroke-opacity:1" transform="translate(0 -171.816)"/><path d="M61.734 244.14c1.857 0 4.245-.663 6.035-1.923l-1.857-3.383c-1.194.663-2.255.995-3.382.995-1.857 0-3.316-.663-3.847-2.653h9.451c.1-.398.232-1.393.232-2.387 0-4.444-2.321-8.025-7.229-8.025-4.046 0-7.959 3.316-7.959 8.688 0 5.504 3.714 8.688 8.556 8.688zm-3.117-10.678c.332-1.658 1.393-2.388 2.653-2.388 1.724 0 2.255 1.128 2.255 2.388zm10.729 10.288h5.704v-10.877c.862-.796 1.459-1.26 2.52-1.26 1.127 0 1.658.53 1.658 2.653v9.484h5.704v-10.214c0-4.112-1.526-6.765-5.173-6.765-2.255 0-3.913 1.127-5.24 2.388h-.133l-.397-1.99h-4.643z" style="fill:#000;stroke:#fff;stroke-opacity:1" transform="translate(0 -171.816)"/></g></svg>