<svg width="480" height="480" viewBox="0 0 127 127" xmlns="http://www.w3.org/2000/svg"><defs><marker id="a" overflow="visible" orient="auto"><path transform="matrix(.8 0 0 .8 10 0)" d="m0 0 5-5-17.5 5L5 5 0 0z" fill="#3a2ee6" fill-rule="evenodd"/></marker></defs><path transform="scale(.26458)" d="m155.9 182.89 21.537 21.537-13.826-3.166 11.729 24.801-5.506-3.21-31.695-31.696h-21.666l22.264 22.264-7.06 21.307-6.092-6.092H103.92L126.286 251l-6.336 19.12L329.83 480H480V326.55L367.44 213.99l-40.742 17.087L309.2 213.58l-26.715 10.625-16.121-16.12-16.621 10.897-11.521-11.52-15.668 18.645-14.715-14.715-2.297-.525-27.975-27.975h-21.664z" fill="#3a2ee6" marker-start="url(#a)"/><g fill="#fff" stroke="#3a2ee6" stroke-width="1.165" aria-label="three"><path d="M36.363 72.454c1.824 0 3.05-.332 3.913-.597l-.862-4.112c-.398.132-.929.265-1.46.265-1.06 0-1.989-.597-1.989-2.42v-5.672h3.78v-4.443h-3.78v-4.311h-4.709l-.663 4.31-2.52.2v4.244h2.188v5.77c0 4.046 1.791 6.765 6.102 6.765zM40.692 72.054h5.704V61.177c.862-.796 1.459-1.26 2.52-1.26 1.127 0 1.658.53 1.658 2.652v9.484h5.704V61.84c0-4.112-1.526-6.764-5.173-6.764-2.255 0-3.847 1.127-4.975 2.122l.266-2.852v-5.372h-5.704zM57.876 72.054h5.704v-9.22c.796-2.055 2.255-2.785 3.448-2.785.73 0 1.26.133 1.857.265l.929-4.907c-.464-.2-1.028-.332-2.056-.332-1.625 0-3.482.995-4.709 3.25h-.133l-.397-2.852h-4.643z"/><path d="M76.99 72.454c1.857 0 4.245-.664 6.035-1.924l-1.857-3.382c-1.194.663-2.255.995-3.382.995-1.857 0-3.316-.664-3.847-2.653h9.451c.1-.398.232-1.393.232-2.388 0-4.443-2.321-8.025-7.229-8.025-4.046 0-7.959 3.316-7.959 8.688 0 5.505 3.714 8.689 8.556 8.689zm-3.117-10.678c.332-1.659 1.393-2.388 2.653-2.388 1.724 0 2.255 1.127 2.255 2.388zM92.295 72.454c1.857 0 4.245-.664 6.035-1.924l-1.857-3.382c-1.193.663-2.255.995-3.382.995-1.857 0-3.316-.664-3.847-2.653h9.451c.1-.398.232-1.393.232-2.388 0-4.443-2.321-8.025-7.229-8.025-4.046 0-7.959 3.316-7.959 8.688 0 5.505 3.714 8.689 8.556 8.689zm-3.117-10.678c.332-1.659 1.393-2.388 2.653-2.388 1.724 0 2.255 1.127 2.255 2.388z"/></g></svg>