<?xml version="1.0" encoding="UTF-8"?>
<svg width="480" height="480" version="1.1" viewBox="0 0 127 127" xmlns="http://www.w3.org/2000/svg" xmlns:cc="http://creativecommons.org/ns#" xmlns:dc="http://purl.org/dc/elements/1.1/" xmlns:rdf="http://www.w3.org/1999/02/22-rdf-syntax-ns#">
<defs>
<marker id="a" overflow="visible" orient="auto">
<path transform="scale(.8) translate(12.5)" d="m0 0l5-5-17.5 5 17.5 5-5-5z" fill="#3a2ee6" fill-rule="evenodd"/>
</marker>
</defs>
<metadata>
<rdf:RDF>
<cc:Work rdf:about="">
<dc:format>image/svg+xml</dc:format>
<dc:type rdf:resource="http://purl.org/dc/dcmitype/StillImage"/>
<dc:title/>
</cc:Work>
</rdf:RDF>
</metadata>
<g transform="translate(0 -170)">
<path transform="matrix(.26458 0 0 .26458 0 170)" d="m155.9 182.89l21.537 21.537-13.826-3.166 11.729 24.801-5.5059-3.2109-31.695-31.695h-21.666l22.264 22.264-7.0606 21.307-6.0918-6.0918h-21.664l22.365 22.365-6.3359 19.119 209.88 209.88h150.17v-153.45l-112.56-112.56-40.742 17.088-17.498-17.498-26.715 10.625-16.121-16.121-16.621 10.898-11.521-11.521-15.668 18.646-14.715-14.715-2.2969-0.52539-27.975-27.975h-21.664z" fill="#3a2ee6" marker-start="url(#a)"/>
<g transform="translate(0 -2.7865)" fill="#fff" stroke="#3a2ee6" stroke-width="1.165" aria-label="three">
<path d="m36.363 245.24c1.8239 0 3.0508-0.33161 3.913-0.5969l-0.86219-4.112c-0.39793 0.13264-0.92851 0.26528-1.4591 0.26528-1.0612 0-1.9897-0.5969-1.9897-2.4208v-5.6706h3.7804v-4.4436h-3.7804v-4.3109h-4.7089l-0.66322 4.3109-2.5202 0.19897v4.2446h2.1886v5.77c0 4.0456 1.7907 6.7649 6.1016 6.7649z"/>
<path d="m40.692 244.84h5.7037v-10.877c0.86219-0.79587 1.4591-1.2601 2.5202-1.2601 1.1275 0 1.6581 0.53058 1.6581 2.6529v9.4841h5.7037v-10.214c0-4.112-1.5254-6.7649-5.1731-6.7649-2.255 0-3.8467 1.1275-4.9742 2.1223l0.26529-2.8518v-5.3721h-5.7037z"/>
<path d="m57.876 244.84h5.7037v-9.2188c0.79587-2.056 2.255-2.7855 3.4488-2.7855 0.72954 0 1.2601 0.13264 1.857 0.26529l0.92851-4.9078c-0.46426-0.19896-1.028-0.33161-2.056-0.33161-1.6249 0-3.4819 0.99483-4.7089 3.2498h-0.13264l-0.39793-2.8519h-4.6426z"/>
<path d="m76.99 245.24c1.857 0 4.2446-0.66322 6.0353-1.9233l-1.857-3.3824c-1.1938 0.66322-2.255 0.99483-3.3824 0.99483-1.857 0-3.3161-0.66322-3.8467-2.6529h9.4509c0.09948-0.39793 0.23213-1.3928 0.23213-2.3876 0-4.4436-2.3213-8.025-7.2291-8.025-4.0457 0-7.9587 3.3161-7.9587 8.6882 0 5.5048 3.714 8.6882 8.5556 8.6882zm-3.1171-10.678c0.33161-1.6581 1.3928-2.3876 2.6529-2.3876 1.7244 0 2.255 1.1275 2.255 2.3876z"/>
<path d="m92.295 245.24c1.857 0 4.2446-0.66322 6.0353-1.9233l-1.857-3.3824c-1.1938 0.66322-2.255 0.99483-3.3824 0.99483-1.857 0-3.3161-0.66322-3.8467-2.6529h9.4509c0.09948-0.39793 0.23213-1.3928 0.23213-2.3876 0-4.4436-2.3213-8.025-7.2291-8.025-4.0457 0-7.9587 3.3161-7.9587 8.6882 0 5.5048 3.714 8.6882 8.5556 8.6882zm-3.1171-10.678c0.33161-1.6581 1.3928-2.3876 2.6529-2.3876 1.7244 0 2.255 1.1275 2.255 2.3876z"/>
</g>
</g>
</svg>
