<svg width="480" height="480" viewBox="0 0 127 127" xmlns="http://www.w3.org/2000/svg"><path d="m71.328 54.895-4.168 7.711-7.71-7.71L53.58 60.2l-11.738-1.212-1.84-1.84-8.566 3.087 8.005 7.616-14.575 2.388L81.627 127H127V82.897l-26.812-26.813-4.807 3.323-4.51-4.51-4.42 5.134-3.196-3.196-6.653 3.333-5.272-5.272z" fill="#3dcc00"/><g fill="#fff" stroke="#3dcc00" stroke-width="1.165" aria-label="seven"><path d="M32.096 72.457c4.643 0 7.096-2.388 7.096-5.505 0-2.985-2.255-4.245-4.244-4.974-1.658-.597-3.117-.929-3.117-1.791 0-.663.497-.928 1.459-.928 1.028 0 2.188.53 3.382 1.392l2.52-3.382c-1.459-1.094-3.382-2.189-6.101-2.189-3.913 0-6.566 2.123-6.566 5.372 0 2.72 2.255 4.146 4.178 4.908 1.658.663 3.184 1.061 3.184 1.924 0 .663-.464.994-1.658.994-1.16 0-2.52-.53-4.046-1.658l-2.52 3.515c1.724 1.393 4.31 2.322 6.433 2.322z"/><path d="M47.527 72.457c1.857 0 4.245-.664 6.035-1.924l-1.857-3.382c-1.193.663-2.255.995-3.382.995-1.857 0-3.316-.663-3.847-2.653h9.451c.1-.398.232-1.393.232-2.388 0-4.443-2.321-8.025-7.229-8.025-4.046 0-7.959 3.316-7.959 8.688 0 5.505 3.714 8.689 8.556 8.689zM44.41 61.779c.332-1.658 1.393-2.388 2.653-2.388 1.724 0 2.255 1.128 2.255 2.388zM58.729 72.057h6.566l5.24-16.581h-5.439l-1.79 7.229a315.007 315.007 0 0 0-1.194 5.173h-.133a314.77 314.77 0 0 0-1.194-5.173l-1.79-7.23H53.29zM78.139 72.457c1.857 0 4.245-.664 6.035-1.924l-1.857-3.382c-1.193.663-2.255.995-3.382.995-1.857 0-3.316-.663-3.847-2.653h9.451c.1-.398.232-1.393.232-2.388 0-4.443-2.321-8.025-7.229-8.025-4.046 0-7.959 3.316-7.959 8.688 0 5.505 3.714 8.689 8.556 8.689zm-3.117-10.678c.332-1.658 1.393-2.388 2.653-2.388 1.724 0 2.255 1.128 2.255 2.388zM85.752 72.057h5.704V61.18c.862-.796 1.459-1.26 2.52-1.26 1.127 0 1.658.53 1.658 2.653v9.484h5.704V61.843c0-4.112-1.526-6.765-5.173-6.765-2.255 0-3.913 1.127-5.24 2.387h-.133l-.397-1.99h-4.643z"/></g></svg>