<svg width="480" height="480" viewBox="0 0 127 127" xmlns="http://www.w3.org/2000/svg"><path style="fill:#fff" d="m220.33 181.96-19.12 6.064 12.77 13.24-15.046-1.73 19.114 19.113-17.07 5.41-12.985-12.984h-30.75l-3.907-3.908-18.729 9.613 15.694 16.166-18.52 41.28L302.496 444.94A214.643 214.643 0 0 0 440.99 315.164L339.15 213.325l-38.832 17.178-19.213-19.213-19.121 6.06 20.354 21.106-3.319 1.469-32.756-32.756-.553.175-25.38-25.379v-.006z" transform="scale(.26458)"/><path d="M35.451 245.47h5.704v-10.877c.862-.796 1.459-1.26 2.52-1.26 1.127 0 1.658.53 1.658 2.653v9.484h5.704v-10.214c0-4.112-1.526-6.765-5.173-6.765-2.255 0-3.913 1.127-5.24 2.388h-.133l-.397-1.99H35.45zm17.184 0h5.704v-16.581h-5.704zm2.852-18.637c1.857 0 3.183-1.194 3.183-2.852s-1.326-2.852-3.183-2.852c-1.857 0-3.184 1.194-3.184 2.852s1.327 2.852 3.184 2.852zm4.552 18.637h5.704v-10.877c.862-.796 1.459-1.26 2.52-1.26 1.127 0 1.658.53 1.658 2.653v9.484h5.704v-10.214c0-4.112-1.526-6.765-5.173-6.765-2.255 0-3.913 1.127-5.24 2.388h-.133l-.397-1.99h-4.643zm24.878.4c1.857 0 4.245-.663 6.035-1.923l-1.857-3.383c-1.193.663-2.255.995-3.382.995-1.857 0-3.316-.663-3.847-2.653h9.451c.1-.398.232-1.393.232-2.387 0-4.444-2.321-8.025-7.229-8.025-4.046 0-7.959 3.316-7.959 8.688 0 5.504 3.714 8.688 8.556 8.688zM81.8 235.192c.332-1.658 1.393-2.388 2.653-2.388 1.724 0 2.255 1.128 2.255 2.388z" style="fill:#000;stroke:#fff;stroke-opacity:1" transform="translate(0 -173.495)" stroke="#fff" stroke-width="1.165" aria-label="nine"/></svg>