<svg width="480" height="480" viewBox="0 0 127 127" xmlns="http://www.w3.org/2000/svg"><path style="fill:#fff" d="m269.59 207.48-15.755 29.144-29.143-29.143-22.178 20.05-44.366-4.58-6.955-6.954-32.373 11.666 30.254 28.784-55.086 9.027 185.125 185.125a214.643 214.643 0 0 0 170.69-167.49l-71.134-71.136-18.168 12.561-17.051-17.049-16.702 19.405-12.078-12.079-25.149 12.598-19.926-19.926-.006-.004zm210.412 105.829V480H308.514l.004.004h171.49v-166.69l-.006-.005z" transform="scale(.26458)"/><g fill="#fff" stroke="#fff" stroke-width="1.165" aria-label="seven" style="fill:#000;stroke:#fff;stroke-opacity:1"><path d="M32.096 242.19c4.643 0 7.096-2.388 7.096-5.505 0-2.984-2.255-4.244-4.244-4.974-1.658-.597-3.117-.929-3.117-1.79 0-.664.497-.93 1.459-.93 1.028 0 2.188.531 3.382 1.394l2.52-3.383c-1.459-1.094-3.382-2.188-6.101-2.188-3.913 0-6.566 2.122-6.566 5.372 0 2.719 2.255 4.145 4.178 4.907 1.658.664 3.184 1.062 3.184 1.924 0 .663-.464.995-1.658.995-1.16 0-2.52-.531-4.046-1.658l-2.52 3.515c1.724 1.392 4.31 2.32 6.433 2.32z" style="fill:#000;stroke:#fff;stroke-opacity:1" transform="translate(0 -169.733)"/><path d="M47.527 242.19c1.857 0 4.245-.663 6.035-1.923l-1.857-3.383c-1.193.663-2.255.995-3.382.995-1.857 0-3.316-.663-3.847-2.653h9.451c.1-.398.232-1.393.232-2.387 0-4.444-2.321-8.025-7.229-8.025-4.046 0-7.959 3.316-7.959 8.688 0 5.504 3.714 8.688 8.556 8.688zm-3.117-10.678c.332-1.658 1.393-2.388 2.653-2.388 1.724 0 2.255 1.128 2.255 2.388zm14.319 10.278h6.566l5.24-16.581h-5.439l-1.79 7.23a315.007 315.007 0 0 0-1.194 5.172h-.133a314.77 314.77 0 0 0-1.194-5.173l-1.79-7.229H53.29zm19.41.4c1.857 0 4.245-.663 6.035-1.923l-1.857-3.383c-1.193.663-2.255.995-3.382.995-1.857 0-3.316-.663-3.847-2.653h9.451c.1-.398.232-1.393.232-2.387 0-4.444-2.321-8.025-7.229-8.025-4.046 0-7.959 3.316-7.959 8.688 0 5.504 3.714 8.688 8.556 8.688zm-3.117-10.678c.332-1.658 1.393-2.388 2.653-2.388 1.724 0 2.255 1.128 2.255 2.388zm10.73 10.278h5.704v-10.877c.862-.796 1.459-1.26 2.52-1.26 1.127 0 1.658.53 1.658 2.653v9.484h5.704v-10.214c0-4.112-1.526-6.765-5.173-6.765-2.255 0-3.913 1.127-5.24 2.388h-.133l-.397-1.99h-4.643z" style="fill:#000;stroke:#fff;stroke-opacity:1" transform="translate(0 -169.733)"/></g></svg>