<svg width="480" height="480" viewBox="0 0 127 127" xmlns="http://www.w3.org/2000/svg"><path d="m61.528 54.757-1.37 7.11-1.39.296-5.407-5.406h-6.565l6.56 6.56-1.247.266-5.313-6.826-3.87 8.537 2.056 4.97h-3.98L97.734 127h29.263V97.273L86.065 56.34 73.85 58.944l-3.225-3.225H64.06l4.38 4.38-1.293.275-5.62-5.619z" fill="#960096"/><g fill="#fff" stroke="#960096" stroke-width="1.165" aria-label="one"><path d="M47.301 72.32c4.245 0 8.224-3.184 8.224-8.689s-3.98-8.688-8.224-8.688-8.224 3.184-8.224 8.688c0 5.505 3.98 8.688 8.224 8.688zm0-4.577c-1.724 0-2.388-1.591-2.388-4.112 0-2.52.664-4.112 2.388-4.112 1.724 0 2.388 1.592 2.388 4.112s-.664 4.112-2.388 4.112zM56.411 71.92h5.704V61.041c.862-.795 1.459-1.26 2.52-1.26 1.127 0 1.658.53 1.658 2.653v9.484h5.704V61.705c0-4.112-1.526-6.765-5.173-6.765-2.255 0-3.913 1.128-5.24 2.388h-.133l-.398-1.99h-4.642zM81.289 72.32c1.857 0 4.245-.664 6.035-1.924l-1.857-3.382c-1.194.663-2.255.994-3.382.994-1.857 0-3.316-.663-3.847-2.652h9.451c.1-.398.232-1.393.232-2.388 0-4.444-2.321-8.025-7.229-8.025-4.046 0-7.959 3.316-7.959 8.688 0 5.505 3.714 8.688 8.556 8.688zM78.172 61.64c.331-1.658 1.393-2.387 2.653-2.387 1.724 0 2.255 1.127 2.255 2.387z"/></g></svg>