<svg width="480" height="480" viewBox="0 0 127 127" xmlns="http://www.w3.org/2000/svg"><path d="m58.295 48.143-5.06 1.604 3.38 3.504-3.981-.458 5.057 5.057-4.517 1.431-3.435-3.435h-8.136l-1.034-1.034-4.954 2.543 4.152 4.277-4.9 10.923 54.442 54.442H127v-33.29L89.733 56.443l-10.275 4.545-5.083-5.084-5.06 1.604 5.386 5.584-.878.388-8.666-8.666-.147.046-6.714-6.715z" fill="#f2ba00"/><g fill="#fff" stroke="#f2ba00" stroke-width="1.165" aria-label="nine"><path d="M35.451 71.975h5.704V61.098c.862-.796 1.459-1.26 2.52-1.26 1.127 0 1.658.53 1.658 2.653v9.484h5.704V61.761c0-4.112-1.526-6.765-5.173-6.765-2.255 0-3.913 1.128-5.24 2.388h-.133l-.397-1.99H35.45zM52.635 71.975h5.704v-16.58h-5.704zm2.852-18.637c1.857 0 3.183-1.193 3.183-2.851 0-1.659-1.326-2.852-3.183-2.852-1.857 0-3.184 1.193-3.184 2.852 0 1.658 1.327 2.851 3.184 2.851zM60.039 71.975h5.704V61.098c.862-.796 1.459-1.26 2.52-1.26 1.127 0 1.658.53 1.658 2.653v9.484h5.704V61.761c0-4.112-1.526-6.765-5.173-6.765-2.255 0-3.913 1.128-5.24 2.388h-.133l-.397-1.99h-4.643zM84.917 72.375c1.857 0 4.245-.663 6.035-1.923l-1.857-3.382c-1.193.663-2.255.994-3.382.994-1.857 0-3.316-.663-3.847-2.653h9.451c.1-.398.232-1.392.232-2.387 0-4.444-2.321-8.025-7.229-8.025-4.046 0-7.959 3.316-7.959 8.688 0 5.505 3.714 8.688 8.556 8.688zM81.8 61.697c.332-1.658 1.393-2.387 2.653-2.387 1.724 0 2.255 1.127 2.255 2.387z"/></g></svg>