<svg width="480" height="480" viewBox="0 0 127 127" xmlns="http://www.w3.org/2000/svg"><path d="m43.214 48.291-3.587 13.624-5.308-5.308-12.072 6.014 8.787 8.157h-7.896l56.22 56.22h47.64v-49.1l-22.018-22.02-.396 7.744-8.835-8.834-.463 9.063-7.38-7.379-7.043 2.964-4.648-4.648-4.725 7.157-7.155-7.155-.425 8.302-6.596-6.596h-5.896l-8.205-8.205z" fill="#ff4d00"/><g fill="#fff" stroke="#ff4d00" stroke-width="1.165" aria-label="eleven"><path d="M29.32 72.353c1.856 0 4.244-.663 6.034-1.923l-1.857-3.382c-1.193.663-2.255.994-3.382.994-1.857 0-3.316-.663-3.847-2.653h9.451c.1-.397.232-1.392.232-2.387 0-4.444-2.32-8.025-7.229-8.025-4.045 0-7.958 3.316-7.958 8.688 0 5.505 3.714 8.688 8.555 8.688zm-3.118-10.678c.332-1.658 1.393-2.387 2.653-2.387 1.724 0 2.255 1.127 2.255 2.387zM42.04 72.353c1.26 0 2.188-.199 2.785-.464l-.664-4.178c-.265.066-.397.066-.596.066-.398 0-.929-.332-.929-1.46V48.876h-5.704v17.244c0 3.714 1.26 6.234 5.107 6.234z"/><path d="M52.418 72.353c1.857 0 4.245-.663 6.035-1.923l-1.857-3.382c-1.193.663-2.255.994-3.382.994-1.857 0-3.316-.663-3.847-2.653h9.451c.1-.397.232-1.392.232-2.387 0-4.444-2.32-8.025-7.229-8.025-4.045 0-7.958 3.316-7.958 8.688 0 5.505 3.714 8.688 8.555 8.688zm-3.117-10.678c.332-1.658 1.393-2.387 2.653-2.387 1.724 0 2.255 1.127 2.255 2.387zM63.62 71.953h6.566l5.24-16.58h-5.439l-1.79 7.228a314.77 314.77 0 0 0-1.194 5.173h-.133a314.77 314.77 0 0 0-1.194-5.173l-1.79-7.229h-5.704zM83.03 72.353c1.857 0 4.245-.663 6.035-1.923l-1.857-3.382c-1.193.663-2.255.994-3.382.994-1.857 0-3.316-.663-3.847-2.653h9.451c.1-.397.232-1.392.232-2.387 0-4.444-2.32-8.025-7.229-8.025-4.045 0-7.958 3.316-7.958 8.688 0 5.505 3.714 8.688 8.555 8.688zm-3.117-10.678c.332-1.658 1.393-2.387 2.653-2.387 1.724 0 2.255 1.127 2.255 2.387zM90.642 71.953h5.704V61.076c.862-.796 1.459-1.26 2.52-1.26 1.128 0 1.658.53 1.658 2.653v9.484h5.704V61.74c0-4.112-1.526-6.765-5.173-6.765-2.255 0-3.913 1.128-5.24 2.388h-.132l-.398-1.99h-4.643z"/></g></svg>