<?xml version="1.0" encoding="UTF-8"?>
<svg width="480" height="480" version="1.1" viewBox="0 0 127 127" xmlns="http://www.w3.org/2000/svg" xmlns:cc="http://creativecommons.org/ns#" xmlns:dc="http://purl.org/dc/elements/1.1/" xmlns:rdf="http://www.w3.org/1999/02/22-rdf-syntax-ns#">
<metadata>
<rdf:RDF>
<cc:Work rdf:about="">
<dc:format>image/svg+xml</dc:format>
<dc:type rdf:resource="http://purl.org/dc/dcmitype/StillImage"/>
<dc:title/>
</cc:Work>
</rdf:RDF>
</metadata>
<g transform="translate(0 -170)">
<path transform="matrix(.26458 0 0 .26458 0 170)" d="m151.18 190.35l25.094 25.094-8.0703 19.449-7.0586-7.0586h-22.098l22.676 22.676-7.459 17.977 211.52 211.52h114.21v-116.4l-149.07-149.07-28.738 12.854-20.742-20.742-18.314 19.521-20.037-19.523-9.3184 25.947-25.947-25.947h-18.256l-16.289-16.289h-22.1z" fill="#a400cc"/>
<g transform="translate(0 -1.9117)" fill="#fff" stroke="#a400cc" stroke-width="1.165" aria-label="two">
<path d="m45.663 244.14c1.8239 0 3.0508-0.33161 3.913-0.5969l-0.86219-4.112c-0.39793 0.13265-0.92851 0.26529-1.4591 0.26529-1.0612 0-1.9897-0.5969-1.9897-2.4208v-5.6706h3.7804v-4.4436h-3.7804v-4.3109h-4.7089l-0.66322 4.3109-2.5202 0.19897v4.2446h2.1886v5.77c0 4.0457 1.7907 6.7649 6.1016 6.7649z"/>
<path d="m52.844 243.75h6.4996l1.1275-5.77c0.26529-1.5254 0.46426-3.0508 0.72954-4.8747h0.13264c0.26529 1.8239 0.53058 3.3493 0.79587 4.8747l1.1938 5.77h6.6322l3.7804-16.581h-5.2395l-1.2601 6.9638c-0.26529 1.6581-0.39793 3.3161-0.66322 5.0405h-0.13264c-0.33161-1.7244-0.5969-3.3824-0.99483-5.0405l-1.5917-6.9638h-4.8415l-1.5254 6.9638c-0.39793 1.5917-0.66322 3.3161-0.92851 5.0405h-0.13264c-0.26529-1.7244-0.39793-3.3824-0.66322-5.0405l-1.2601-6.9638h-5.6374z"/>
<path d="m81.404 244.14c4.2446 0 8.224-3.1835 8.224-8.6882 0-5.5048-3.9793-8.6882-8.224-8.6882s-8.224 3.1835-8.224 8.6882c0 5.5047 3.9793 8.6882 8.224 8.6882zm0-4.5762c-1.7244 0-2.3876-1.5917-2.3876-4.112 0-2.5202 0.66322-4.112 2.3876-4.112s2.3876 1.5917 2.3876 4.112c0 2.5202-0.66322 4.112-2.3876 4.112z"/>
</g>
</g>
</svg>
