<svg width="480" height="480" viewBox="0 0 127 127" xmlns="http://www.w3.org/2000/svg"><path d="M73.517 108.53c-1.647 2.384-2.142 4.07-2.065 5.306l-4.368-4.368-1.91 1.91-1.735-1.736-3.242 3.242 1.645 1.645-2.441 4.678 7.789 7.79h35.9l-17.793-17.795-6.954 4.155z" fill="#4d4d4d"/><g fill="#fff" stroke="#4d4d4d" stroke-width=".794" aria-label="am"><path d="M62.038 119.777c1.185 0 2.158-.55 3.047-1.333h.085l.211 1.08h2.54v-6.01c0-3.217-1.482-4.741-4.17-4.741-1.65 0-3.152.571-4.485 1.376l1.121 2.052c1.016-.592 1.883-.952 2.772-.952 1.143 0 1.587.592 1.65 1.524-4.147.423-5.903 1.629-5.903 3.83 0 1.777 1.206 3.174 3.132 3.174zm1.058-2.412c-.74 0-1.206-.318-1.206-.995 0-.804.72-1.439 2.92-1.735v1.84c-.55.551-1.016.89-1.714.89zM70.552 119.523h3.11v-7.089c.657-.677 1.27-1.016 1.778-1.016.89 0 1.291.466 1.291 1.99v6.115h3.11v-7.089c.678-.677 1.27-1.016 1.8-1.016.888 0 1.29.466 1.29 1.99v6.115h3.111v-6.518c0-2.624-1.016-4.232-3.28-4.232-1.397 0-2.37.804-3.301 1.756-.53-1.121-1.418-1.756-2.9-1.756-1.375 0-2.306.74-3.174 1.608h-.084l-.212-1.354h-2.54z" stroke-width=".9922618000000001"/></g></svg>