<svg width="480" height="480" viewBox="0 0 127 127" xmlns="http://www.w3.org/2000/svg"><path style="fill:#fff" d="M232.55 206.952v.008l-5.178 26.87-5.256 1.12-20.434-20.434h-24.81v.002l-14.632 32.264 7.774 18.79h-15.045l170.783 170.783a214.643 214.643 0 0 0 111.146-111.804l-111.61-111.61-46.163 9.843-12.19-12.19H242.12l16.551 16.553-4.887 1.04-21.234-21.235zm-55.67 7.574 24.785 24.786-4.715 1.005-20.07-25.79z" transform="scale(.26458)"/><path d="M47.302 242.19c4.245 0 8.224-3.183 8.224-8.688 0-5.505-3.98-8.688-8.224-8.688s-8.224 3.183-8.224 8.688c0 5.504 3.98 8.688 8.224 8.688zm0-4.576c-1.724 0-2.388-1.592-2.388-4.112s.664-4.112 2.388-4.112c1.724 0 2.388 1.592 2.388 4.112s-.664 4.112-2.388 4.112zm9.11 4.176h5.704v-10.877c.862-.796 1.459-1.26 2.52-1.26 1.127 0 1.658.53 1.658 2.653v9.484h5.704v-10.214c0-4.112-1.526-6.765-5.173-6.765-2.255 0-3.913 1.127-5.24 2.388h-.133l-.397-1.99h-4.643zm24.878.4c1.857 0 4.245-.663 6.035-1.923l-1.857-3.383c-1.193.663-2.255.995-3.382.995-1.857 0-3.316-.663-3.847-2.653h9.451c.1-.398.232-1.393.232-2.387 0-4.444-2.321-8.025-7.229-8.025-4.046 0-7.959 3.316-7.959 8.688 0 5.504 3.714 8.688 8.556 8.688zm-3.117-10.678c.332-1.658 1.393-2.388 2.653-2.388 1.724 0 2.255 1.128 2.255 2.388z" style="fill:#000;stroke:#fff;stroke-opacity:1" transform="translate(-.001 -169.87)" stroke="#fff" stroke-width="1.165" aria-label="one"/></svg>