<svg width="480" height="480" viewBox="0 0 127 127" xmlns="http://www.w3.org/2000/svg"><path d="m76.884 48.146-4.432 12.75-4.716-4.716-7.903 2.605-4.138-4.139-4.267 3.113 6.448 9.209-12.321-12.321-4.267 3.113 4.577 6.536-9.647-9.647-2.793 2.037-6.346-6.347-4.267 3.114 3.795 5.418-8.55 1.382 10.65 10.65-6.477.267 55.829 55.829h48.94v-50.31l-20.497-20.496-8.35 1.662-3.227-3.226-2.982 8.579-15.06-15.06z" fill="#f36"/><path d="M154.53 30.59v.556h.222v-.556z" fill="#c00"/><g fill="#fff" stroke="#f36" stroke-width="1.165" aria-label="twelve"><path d="M26.929 72.212c1.824 0 3.05-.331 3.913-.597l-.862-4.111c-.398.132-.929.265-1.46.265-1.06 0-1.989-.597-1.989-2.421v-5.67h3.78v-4.444h-3.78v-4.311h-4.709l-.663 4.31-2.52.2v4.244h2.188v5.77c0 4.046 1.791 6.765 6.102 6.765z"/><path d="M34.11 71.812h6.5l1.127-5.77c.265-1.525.464-3.05.73-4.874h.132c.266 1.824.53 3.349.796 4.874l1.194 5.77h6.632l3.78-16.58h-5.239l-1.26 6.963c-.265 1.658-.398 3.316-.663 5.04h-.133c-.332-1.724-.597-3.382-.995-5.04l-1.591-6.964h-4.842l-1.525 6.964c-.398 1.592-.664 3.316-.929 5.04h-.132c-.266-1.724-.398-3.382-.664-5.04l-1.26-6.964h-5.637zM63.001 72.212c1.857 0 4.245-.663 6.035-1.923l-1.857-3.382c-1.194.663-2.255.995-3.382.995-1.857 0-3.316-.664-3.847-2.653h9.451c.1-.398.232-1.393.232-2.388 0-4.444-2.321-8.025-7.229-8.025-4.046 0-7.959 3.316-7.959 8.688 0 5.505 3.714 8.688 8.556 8.688zm-3.117-10.678c.332-1.658 1.393-2.387 2.653-2.387 1.724 0 2.255 1.127 2.255 2.387zM75.72 72.212c1.26 0 2.189-.199 2.785-.464l-.663-4.178c-.265.066-.398.066-.597.066-.398 0-.928-.331-.928-1.459V48.734h-5.704v17.244c0 3.714 1.26 6.234 5.107 6.234z"/><path d="M82.319 71.812h6.566l5.24-16.58h-5.439l-1.79 7.228a314.77 314.77 0 0 0-1.194 5.174h-.133a314.77 314.77 0 0 0-1.194-5.173l-1.79-7.23H76.88zM101.73 72.212c1.857 0 4.245-.663 6.035-1.923l-1.857-3.382c-1.193.663-2.255.995-3.382.995-1.857 0-3.316-.664-3.847-2.653h9.451c.1-.398.232-1.393.232-2.388 0-4.444-2.321-8.025-7.229-8.025-4.046 0-7.959 3.316-7.959 8.688 0 5.505 3.714 8.688 8.556 8.688zm-3.117-10.678c.332-1.658 1.393-2.387 2.653-2.387 1.724 0 2.255 1.127 2.255 2.387z"/></g></svg>