<svg width="480" height="480" viewBox="0 0 127 127" xmlns="http://www.w3.org/2000/svg"><path d="m56.617 48.24-4.894 3.39-5.098-.104-2.926 8.97h-6.146l4.634 4.635-2.446 7.5 54.368 54.368h32.888v-30.53L86.995 56.467l-8.853 1.147-2.726-2.725-6.545 5.329-5.33-5.329h-.277l-6.648-6.648z" fill="#00b6cb"/><g fill="#fff" stroke="#00b6cb" stroke-width="1.165" aria-label="five"><path d="M40.325 72.051h5.704V59.914h2.785V55.47H46.03v-.397c0-1.559.663-2.056 1.724-2.056.53 0 1.128.132 1.658.331l.995-4.178a10.55 10.55 0 0 0-3.515-.597c-4.908 0-6.566 3.15-6.566 6.698v.233l-2.189.165v4.245h2.189zM50.925 72.051h5.704v-16.58h-5.704zm2.852-18.637c1.857 0 3.183-1.194 3.183-2.852s-1.326-2.852-3.183-2.852c-1.857 0-3.184 1.194-3.184 2.852s1.327 2.852 3.184 2.852zM62.821 72.051h6.566l5.24-16.58h-5.439l-1.79 7.228a315.007 315.007 0 0 0-1.195 5.173h-.132a314.77 314.77 0 0 0-1.194-5.173l-1.79-7.229h-5.704zM82.231 72.451c1.857 0 4.245-.663 6.035-1.923l-1.857-3.383c-1.194.664-2.255.995-3.382.995-1.857 0-3.316-.663-3.847-2.653h9.451c.1-.398.232-1.393.232-2.387 0-4.444-2.321-8.025-7.229-8.025-4.046 0-7.959 3.316-7.959 8.688 0 5.505 3.714 8.688 8.556 8.688zm-3.117-10.678c.332-1.658 1.393-2.388 2.653-2.388 1.724 0 2.255 1.128 2.255 2.388z"/></g></svg>