<?xml version="1.0" encoding="UTF-8"?>
<svg width="480" height="480" version="1.1" viewBox="0 0 127 127" xmlns="http://www.w3.org/2000/svg" xmlns:cc="http://creativecommons.org/ns#" xmlns:dc="http://purl.org/dc/elements/1.1/" xmlns:rdf="http://www.w3.org/1999/02/22-rdf-syntax-ns#">
<metadata>
<rdf:RDF>
<cc:Work rdf:about="">
<dc:format>image/svg+xml</dc:format>
<dc:type rdf:resource="http://purl.org/dc/dcmitype/StillImage"/>
<dc:title/>
</cc:Work>
</rdf:RDF>
</metadata>
<g transform="translate(0 -170)">
<path transform="matrix(.26458 0 0 .26458 0 170)" d="m172.72 183.99l-40.121 40.25 4.8184 3.9434h-15.873l34.977 34.977-26.707 10.895 205.94 205.94h144.25v-151.11l-121.27-121.27-16.408 11.119-11.746-11.746-9.2891 21.305-21.301-21.303-10.555 26.291-26.289-26.289-12.512 36.596-28.787-28.787h-18.312l-30.816-30.816z" fill="#0064dc"/>
<g transform="translate(0 -3.1063)" fill="#fff" stroke="#0064dc" stroke-width="1.165" aria-label="four">
<path d="m34.93 245.04h5.7037v-12.137h2.7855v-4.4436h-2.7855v-0.39793c0-1.5586 0.66322-2.056 1.7244-2.056 0.53058 0 1.1275 0.13265 1.6581 0.33161l0.99483-4.1783c-0.72954-0.26529-1.9897-0.5969-3.5151-0.5969-4.9078 0-6.5659 3.1503-6.5659 6.6986v0.23213l-2.1886 0.1658v4.2446h2.1886z"/>
<path d="m52.568 245.44c4.2446 0 8.224-3.1835 8.224-8.6882 0-5.5047-3.9793-8.6882-8.224-8.6882s-8.224 3.1835-8.224 8.6882c0 5.5048 3.9793 8.6882 8.224 8.6882zm0-4.5762c-1.7244 0-2.3876-1.5917-2.3876-4.112 0-2.5202 0.66322-4.112 2.3876-4.112 1.7244 0 2.3876 1.5917 2.3876 4.112 0 2.5202-0.66322 4.112-2.3876 4.112z"/>
<path d="m68.512 245.44c2.255 0 3.7804-0.99483 5.1068-2.5866h0.13264l0.39793 2.1886h4.6426v-16.581h-5.7037v10.678c-0.72954 1.0612-1.3264 1.4591-2.3876 1.4591-1.1275 0-1.6581-0.53058-1.6581-2.6529v-9.4841h-5.7037v10.214c0 4.112 1.5254 6.7649 5.1731 6.7649z"/>
<path d="m82.32 245.04h5.7037v-9.2188c0.79587-2.056 2.255-2.7855 3.4488-2.7855 0.72954 0 1.2601 0.13264 1.857 0.26529l0.92851-4.9078c-0.46426-0.19896-1.028-0.33161-2.056-0.33161-1.6249 0-3.4819 0.99483-4.7089 3.2498h-0.13264l-0.39793-2.8519h-4.6426z"/>
</g>
</g>
</svg>
