<?xml version="1.0" encoding="UTF-8"?>
<svg width="480" height="480" version="1.1" viewBox="0 0 127 127" xmlns="http://www.w3.org/2000/svg" xmlns:cc="http://creativecommons.org/ns#" xmlns:dc="http://purl.org/dc/elements/1.1/" xmlns:rdf="http://www.w3.org/1999/02/22-rdf-syntax-ns#">
<metadata>
<rdf:RDF>
<cc:Work rdf:about="">
<dc:format>image/svg+xml</dc:format>
<dc:type rdf:resource="http://purl.org/dc/dcmitype/StillImage"/>
<dc:title/>
</cc:Work>
</rdf:RDF>
</metadata>
<g transform="translate(0 -170)">
<path transform="matrix(.26458 0 0 .26458 0 170)" d="m194.85 182.15l-2.2305 17.855h-18.955l16.852 16.852-2.6992 21.609-24.469-24.469h-18.738l-3.0547-2.1484-0.84375 2.1484h-7.3633l5.2871 5.2871-18.594 47.365 213.35 213.35h146.61v-162.34l-126.5-126.5-25.695 31.977-11.701-11.701-1.4238 0.34765-28.896-28.896-16.918 18.031 17.832 17.674-44.561 10.842-47.281-47.281z" fill="#c0d116"/>
<g transform="translate(0 -.20271)" fill="#fff" stroke="#c0d116" stroke-width="1.165" aria-label="eight">
<path d="m38.296 242.65c1.857 0 4.2446-0.66322 6.0353-1.9233l-1.857-3.3824c-1.1938 0.66322-2.255 0.99484-3.3824 0.99484-1.857 0-3.3161-0.66323-3.8467-2.6529h9.4509c0.09948-0.39794 0.23213-1.3928 0.23213-2.3876 0-4.4436-2.3213-8.025-7.2291-8.025-4.0457 0-7.9587 3.3161-7.9587 8.6882 0 5.5047 3.714 8.6882 8.5556 8.6882zm-3.1171-10.678c0.33161-1.658 1.3928-2.3876 2.6529-2.3876 1.7244 0 2.255 1.1275 2.255 2.3876z"/>
<path d="m45.909 242.25h5.7037v-16.581h-5.7037zm2.8519-18.637c1.857 0 3.1835-1.1938 3.1835-2.8518 0-1.6581-1.3264-2.8519-3.1835-2.8519s-3.1835 1.1938-3.1835 2.8519c0 1.658 1.3264 2.8518 3.1835 2.8518z"/>
<path d="m59.348 249.09c5.9027 0 9.6167-2.4539 9.6167-6.0353 0-3.0508-2.3876-4.3109-6.5327-4.3109h-2.4871c-1.6581 0-2.3213-0.26529-2.3213-0.99483 0-0.46426 0.06632-0.66323 0.39793-0.96168 0.72954 0.16581 1.3264 0.23213 1.857 0.23213 3.714 0 6.6985-1.5917 6.6985-5.5047 0-0.66323-0.13264-1.3264-0.26529-1.7244h2.3876v-4.112h-6.168c-0.79587-0.26529-1.7244-0.39793-2.6529-0.39793-3.6477 0-7.0965 1.9233-7.0965 6.0353 0 1.9233 1.0612 3.4488 2.255 4.2446v0.13265c-1.1275 0.79586-1.857 1.9897-1.857 3.1171 0 1.3928 0.66322 2.255 1.5254 2.8519v0.13264c-1.5254 0.79587-2.3213 1.8239-2.3213 3.1835 0 2.9845 3.1835 4.112 6.9638 4.112zm0.53058-15.453c-1.0612 0-1.7907-0.72955-1.7907-2.3213 0-1.5254 0.72954-2.255 1.7907-2.255 1.0612 0 1.7907 0.72955 1.7907 2.255 0 1.5917-0.72954 2.3213-1.7907 2.3213zm0.39793 11.938c-1.9233 0-3.2498-0.46426-3.2498-1.5254 0-0.46426 0.19897-0.79587 0.5969-1.1938 0.46426 0.13264 1.0612 0.19896 2.3876 0.19896h1.2933c1.4259 0 2.2218 0.13265 2.2218 0.99484 0 0.92851-1.3928 1.5254-3.2498 1.5254z"/>
<path d="m69.331 242.25h5.7037v-10.877c0.86219-0.79586 1.4591-1.2601 2.5202-1.2601 1.1275 0 1.6581 0.53058 1.6581 2.6529v9.4841h5.7037v-10.214c0-4.112-1.5254-6.7649-5.1731-6.7649-2.255 0-3.8467 1.1275-4.9742 2.1223l0.26529-2.8519v-5.3721h-5.7037z"/>
<path d="m93.346 242.65c1.8239 0 3.0508-0.33161 3.913-0.5969l-0.86219-4.112c-0.39793 0.13265-0.92851 0.26529-1.4591 0.26529-1.0612 0-1.9897-0.5969-1.9897-2.4208v-5.6706h3.7804v-4.4436h-3.7804v-4.3109h-4.7089l-0.66322 4.3109-2.5202 0.19897v4.2446h2.1886v5.77c0 4.0457 1.7907 6.7649 6.1016 6.7649z"/>
</g>
</g>
</svg>
