<svg width="480" height="480" viewBox="0 0 127 127" xmlns="http://www.w3.org/2000/svg"><path style="fill:#fff" d="m151.18 190.35.002.008h.005l-.007-.008zm.007.008 25.087 25.086-8.07 19.45-7.06-7.06h-22.097l22.676 22.677-7.46 17.977L323.257 437.48a214.643 214.643 0 0 0 114.896-115.716L330.924 214.538l-28.739 12.854-20.74-20.743-18.315 19.522-20.037-19.524-9.319 25.948-25.945-25.948h-18.256l-16.292-16.29h-22.094zM365.778 480l.006.006h114.21V480H365.778z" transform="scale(.26458)"/><g fill="#fff" stroke="#fff" stroke-width="1.165" aria-label="two" style="fill:#000;stroke:#fffeff;stroke-opacity:1"><path d="M45.663 244.14c1.824 0 3.05-.332 3.913-.597l-.862-4.112c-.398.133-.929.265-1.46.265-1.06 0-1.989-.597-1.989-2.42v-5.671h3.78v-4.444h-3.78v-4.31h-4.709l-.663 4.31-2.52.2v4.244h2.188v5.77c0 4.046 1.791 6.765 6.102 6.765z" style="fill:#000;stroke:#fffeff;stroke-opacity:1" transform="translate(0 -171.912)"/><path d="M52.844 243.75h6.5l1.127-5.77c.265-1.525.464-3.05.73-4.875h.132c.266 1.824.53 3.35.796 4.875l1.194 5.77h6.632l3.78-16.581h-5.239l-1.26 6.964c-.265 1.658-.398 3.316-.663 5.04h-.133c-.332-1.724-.597-3.382-.995-5.04l-1.591-6.964h-4.842l-1.525 6.964c-.398 1.591-.664 3.316-.929 5.04h-.132c-.266-1.724-.398-3.382-.664-5.04l-1.26-6.964h-5.637zm28.56.39c4.245 0 8.224-3.183 8.224-8.688 0-5.505-3.98-8.688-8.224-8.688s-8.224 3.183-8.224 8.688c0 5.504 3.98 8.688 8.224 8.688zm0-4.576c-1.724 0-2.388-1.592-2.388-4.112s.664-4.112 2.388-4.112 2.388 1.591 2.388 4.112c0 2.52-.664 4.112-2.388 4.112z" style="fill:#000;stroke:#fffeff;stroke-opacity:1" transform="translate(0 -171.912)"/></g></svg>