<?xml version="1.0" encoding="UTF-8"?>
<svg width="480" height="480" version="1.1" viewBox="0 0 127 127" xmlns="http://www.w3.org/2000/svg" xmlns:cc="http://creativecommons.org/ns#" xmlns:dc="http://purl.org/dc/elements/1.1/" xmlns:rdf="http://www.w3.org/1999/02/22-rdf-syntax-ns#">
<defs>
<marker id="a" overflow="visible" orient="auto">
<path transform="scale(.8) translate(12.5)" d="m0 0l5-5-17.5 5 17.5 5-5-5z" fill="#ff8b00" fill-rule="evenodd"/>
</marker>
</defs>
<metadata>
<rdf:RDF>
<cc:Work rdf:about="">
<dc:format>image/svg+xml</dc:format>
<dc:type rdf:resource="http://purl.org/dc/dcmitype/StillImage"/>
<dc:title/>
</cc:Work>
</rdf:RDF>
</metadata>
<g transform="translate(0 -170)">
<path transform="matrix(.26458 0 0 .26458 0 170)" d="m172.98 190.71l23.945 23.945-11.076 24.521-10.994-10.994h-18.053l23.43 23.43-7.918 17.525 210.86 210.86h96.83v-105.19l-163.66-163.67-15.076 15.662-19.801-19.801-14.721 21.367-14.545-14.545-29.727 8.3203-31.438-31.438h-18.051z" fill="#ff8b00" marker-start="url(#a)"/>
<g transform="translate(0 -1.8164)" fill="#fff" stroke="#ff8b00" stroke-width="1.165" aria-label="ten">
<path d="m50.358 244.14c1.8239 0 3.0508-0.33161 3.913-0.5969l-0.86219-4.112c-0.39793 0.13265-0.92851 0.26529-1.4591 0.26529-1.0612 0-1.9897-0.5969-1.9897-2.4208v-5.6706h3.7804v-4.4436h-3.7804v-4.3109h-4.7089l-0.66322 4.3109-2.5202 0.19897v4.2446h2.1886v5.77c0 4.0457 1.7907 6.7649 6.1016 6.7649z"/>
<path d="m61.734 244.14c1.857 0 4.2446-0.66322 6.0353-1.9234l-1.857-3.3824c-1.1938 0.66322-2.255 0.99483-3.3824 0.99483-1.857 0-3.3161-0.66322-3.8467-2.6529h9.4509c0.09948-0.39794 0.23213-1.3928 0.23213-2.3876 0-4.4436-2.3213-8.025-7.2291-8.025-4.0457 0-7.9587 3.3161-7.9587 8.6882 0 5.5047 3.714 8.6882 8.5556 8.6882zm-3.1171-10.678c0.33161-1.658 1.3928-2.3876 2.6529-2.3876 1.7244 0 2.255 1.1275 2.255 2.3876z"/>
<path d="m69.346 243.75h5.7037v-10.877c0.86219-0.79587 1.4591-1.2601 2.5202-1.2601 1.1275 0 1.6581 0.53058 1.6581 2.6529v9.4841h5.7037v-10.214c0-4.112-1.5254-6.7649-5.1731-6.7649-2.255 0-3.913 1.1275-5.2395 2.3876h-0.13264l-0.39793-1.9897h-4.6426z"/>
</g>
</g>
</svg>
