<svg width="480" height="480" viewBox="0 0 127 127" xmlns="http://www.w3.org/2000/svg"><path d="m64.843 48.13-2.97 3.414.883.953-3.489.38 3.972 3.972-13.92.848 3.945 5.778.12 6.62h-9.223l56.903 56.903H127v-28.01L82.764 54.751l-5.755 5.218-5.218-5.218-.12.206-6.826-6.827z" fill="#00b250"/><g fill="#fff" stroke="#00b250" stroke-width="1.165" aria-label="six"><path d="M51.386 72.311c4.643 0 7.096-2.387 7.096-5.504 0-2.985-2.254-4.245-4.244-4.975-1.658-.597-3.117-.928-3.117-1.79 0-.664.497-.929 1.459-.929 1.028 0 2.189.53 3.382 1.393l2.52-3.383c-1.459-1.094-3.382-2.188-6.101-2.188-3.913 0-6.566 2.122-6.566 5.372 0 2.72 2.255 4.145 4.178 4.908 1.658.663 3.184 1.061 3.184 1.923 0 .663-.464.995-1.658.995-1.16 0-2.52-.53-4.046-1.658l-2.52 3.515c1.724 1.393 4.31 2.321 6.433 2.321zM59.124 71.911h5.704v-16.58h-5.704zm2.852-18.637c1.857 0 3.183-1.193 3.183-2.851 0-1.659-1.326-2.852-3.183-2.852s-3.184 1.193-3.184 2.852c0 1.658 1.327 2.851 3.184 2.851zM65.069 71.911h5.903l.928-2.321c.365-.962.763-1.923 1.128-2.852h.132c.498.929.962 1.924 1.46 2.852l1.326 2.321h6.101l-4.974-7.958 4.71-8.622h-5.904l-.795 2.321c-.299.929-.697 1.923-.995 2.852h-.133l-1.326-2.852-1.194-2.321h-6.102l4.71 7.958z"/></g></svg>