<svg width="480" height="480" viewBox="0 0 127 127" xmlns="http://www.w3.org/2000/svg"><path style="fill:#fff" d="m155.902 182.893 21.536 21.533-13.827-3.166 11.73 24.801-5.507-3.209-31.696-31.695h-21.666l22.264 22.264-7.059 21.307-6.091-6.092h-21.667l22.368 22.363-6.336 19.122 176.8 176.8a214.643 214.643 0 0 0 150.854-152.767L367.44 213.99l-40.743 17.088-17.498-17.496-26.715 10.625-16.12-16.121-16.62 10.896-11.522-11.52-15.668 18.645-14.715-14.715-2.297-.523-27.975-27.975h-21.665z" transform="scale(.26458)"/><g fill="#fff" stroke="#fff" stroke-width="1.165" aria-label="three" style="fill:#000;stroke:#fff;stroke-opacity:1"><path d="M36.363 245.24c1.824 0 3.05-.332 3.913-.597l-.862-4.112c-.398.133-.929.265-1.46.265-1.06 0-1.989-.597-1.989-2.42v-5.671h3.78v-4.444h-3.78v-4.31h-4.709l-.663 4.31-2.52.2v4.244h2.188v5.77c0 4.046 1.791 6.765 6.102 6.765zm4.329-.4h5.704v-10.877c.862-.796 1.459-1.26 2.52-1.26 1.127 0 1.658.53 1.658 2.653v9.484h5.704v-10.214c0-4.112-1.526-6.765-5.173-6.765-2.255 0-3.847 1.127-4.975 2.122l.266-2.852v-5.372h-5.704zm17.184 0h5.704v-9.219c.796-2.056 2.255-2.785 3.448-2.785.73 0 1.26.132 1.857.265l.929-4.908c-.464-.199-1.028-.331-2.056-.331-1.625 0-3.482.994-4.709 3.25h-.133l-.397-2.853h-4.643z" style="fill:#000;stroke:#fff;stroke-opacity:1" transform="translate(0 -172.786)"/><path d="M76.99 245.24c1.857 0 4.245-.663 6.035-1.923l-1.857-3.383c-1.194.664-2.255.995-3.382.995-1.857 0-3.316-.663-3.847-2.653h9.451c.1-.398.232-1.393.232-2.387 0-4.444-2.321-8.025-7.229-8.025-4.046 0-7.959 3.316-7.959 8.688 0 5.505 3.714 8.688 8.556 8.688zm-3.117-10.678c.332-1.658 1.393-2.388 2.653-2.388 1.724 0 2.255 1.128 2.255 2.388zm18.422 10.678c1.857 0 4.245-.663 6.035-1.923l-1.857-3.383c-1.193.664-2.255.995-3.382.995-1.857 0-3.316-.663-3.847-2.653h9.451c.1-.398.232-1.393.232-2.387 0-4.444-2.321-8.025-7.229-8.025-4.046 0-7.959 3.316-7.959 8.688 0 5.505 3.714 8.688 8.556 8.688zm-3.117-10.678c.332-1.658 1.393-2.388 2.653-2.388 1.724 0 2.255 1.128 2.255 2.388z" style="fill:#000;stroke:#fff;stroke-opacity:1" transform="translate(0 -172.786)"/></g></svg>