<svg width="480" height="480" viewBox="0 0 127 127" xmlns="http://www.w3.org/2000/svg"><path style="fill:#fff" d="m213.985 182.33.002.002.002-.002h-.004zm.002.002-18.494 12.805-19.268-.39-11.063 33.904h-23.229l17.516 17.516-9.246 28.344 166.1 166.1a214.643 214.643 0 0 0 121.536-118.154L328.805 213.423l-33.461 4.336-10.301-10.303-24.74 20.143-20.142-20.141h-1.049l-25.125-25.126zM355.692 480l.002.002h124.3V480H355.692z" transform="scale(.26458)"/><path d="M40.325 245.47h5.704v-12.137h2.785v-4.444H46.03v-.398c0-1.558.663-2.056 1.724-2.056.53 0 1.128.133 1.658.332l.995-4.178a10.55 10.55 0 0 0-3.515-.597c-4.908 0-6.566 3.15-6.566 6.698v.233l-2.189.165v4.245h2.189zm10.6 0h5.704v-16.581h-5.704zm2.852-18.637c1.857 0 3.183-1.194 3.183-2.852s-1.326-2.852-3.183-2.852c-1.857 0-3.184 1.194-3.184 2.852s1.327 2.852 3.184 2.852zm9.044 18.637h6.566l5.24-16.581h-5.439l-1.79 7.23a315.007 315.007 0 0 0-1.195 5.172h-.132a314.77 314.77 0 0 0-1.194-5.173l-1.79-7.229h-5.704zm19.41.4c1.857 0 4.245-.663 6.035-1.923l-1.857-3.383c-1.194.663-2.255.995-3.382.995-1.857 0-3.316-.663-3.847-2.653h9.451c.1-.398.232-1.393.232-2.387 0-4.444-2.321-8.025-7.229-8.025-4.046 0-7.959 3.316-7.959 8.688 0 5.504 3.714 8.688 8.556 8.688zm-3.117-10.678c.332-1.658 1.393-2.388 2.653-2.388 1.724 0 2.255 1.128 2.255 2.388z" style="fill:#000;stroke:#fff;stroke-opacity:1" transform="translate(0 -173.419)" stroke="#fff" stroke-width="1.165" aria-label="five"/></svg>