<?xml version="1.0" encoding="UTF-8"?>
<svg width="480" height="480" version="1.1" viewBox="0 0 127 127" xmlns="http://www.w3.org/2000/svg" xmlns:cc="http://creativecommons.org/ns#" xmlns:dc="http://purl.org/dc/elements/1.1/" xmlns:rdf="http://www.w3.org/1999/02/22-rdf-syntax-ns#">
<metadata>
<rdf:RDF>
<cc:Work rdf:about="">
<dc:format>image/svg+xml</dc:format>
<dc:type rdf:resource="http://purl.org/dc/dcmitype/StillImage"/>
<dc:title/>
</cc:Work>
</rdf:RDF>
</metadata>
<g transform="translate(0 -170)">
<path transform="matrix(.26458 0 0 .26458 0 170)" d="m290.59 181.97l-16.752 48.191-17.826-17.826-29.867 9.8477-15.643-15.643-16.127 11.766 24.373 34.805-46.57-46.57-16.127 11.766 17.299 24.703-36.461-36.461-10.555 7.6992-23.986-23.986-16.127 11.766 14.342 20.48-32.318 5.2246 40.252 40.252-24.477 1.0078 211.01 211.01h184.97v-190.15l-77.467-77.467-31.562 6.2832-12.195-12.195-11.27 32.424-56.918-56.918z" fill="#f36"/>
<path d="m154.53 200.59v0.55603h0.22221v-0.55603z" fill="#c00"/>
<g transform="translate(0 -3.0276)" fill="#fff" stroke="#f36" stroke-width="1.165" aria-label="twelve">
<path d="m26.929 245.24c1.8239 0 3.0508-0.33161 3.913-0.5969l-0.86219-4.112c-0.39793 0.13264-0.92851 0.26528-1.4591 0.26528-1.0612 0-1.9897-0.5969-1.9897-2.4208v-5.6706h3.7804v-4.4436h-3.7804v-4.3109h-4.7089l-0.66322 4.3109-2.5202 0.19897v4.2446h2.1886v5.77c0 4.0456 1.7907 6.7649 6.1016 6.7649z"/>
<path d="m34.11 244.84h6.4996l1.1275-5.77c0.26529-1.5254 0.46426-3.0508 0.72954-4.8747h0.13264c0.26529 1.8239 0.53058 3.3493 0.79587 4.8747l1.1938 5.77h6.6322l3.7804-16.581h-5.2395l-1.2601 6.9638c-0.26529 1.658-0.39793 3.3161-0.66322 5.0405h-0.13264c-0.33161-1.7244-0.5969-3.3824-0.99483-5.0405l-1.5917-6.9638h-4.8415l-1.5254 6.9638c-0.39793 1.5917-0.66322 3.3161-0.92851 5.0405h-0.13264c-0.26529-1.7244-0.39793-3.3824-0.66322-5.0405l-1.2601-6.9638h-5.6374z"/>
<path d="m63.001 245.24c1.857 0 4.2446-0.66322 6.0353-1.9233l-1.857-3.3824c-1.1938 0.66322-2.255 0.99483-3.3824 0.99483-1.857 0-3.3161-0.66322-3.8467-2.6529h9.4509c0.09948-0.39793 0.23213-1.3928 0.23213-2.3876 0-4.4436-2.3213-8.025-7.2291-8.025-4.0457 0-7.9587 3.3161-7.9587 8.6882 0 5.5048 3.714 8.6882 8.5556 8.6882zm-3.1171-10.678c0.33161-1.6581 1.3928-2.3876 2.6529-2.3876 1.7244 0 2.255 1.1275 2.255 2.3876z"/>
<path d="m75.72 245.24c1.2601 0 2.1886-0.19896 2.7855-0.46425l-0.66322-4.1783c-0.26529 0.0663-0.39793 0.0663-0.5969 0.0663-0.39793 0-0.92851-0.33161-0.92851-1.4591v-17.443h-5.7037v17.244c0 3.714 1.2601 6.2343 5.1068 6.2343z"/>
<path d="m82.319 244.84h6.5659l5.2395-16.581h-5.4384l-1.7907 7.2291c-0.39793 1.658-0.79587 3.3824-1.1938 5.1731h-0.13264c-0.39793-1.7907-0.79587-3.5151-1.1938-5.1731l-1.7907-7.2291h-5.7037z"/>
<path d="m101.73 245.24c1.857 0 4.2446-0.66322 6.0353-1.9233l-1.857-3.3824c-1.1938 0.66322-2.255 0.99483-3.3824 0.99483-1.857 0-3.3161-0.66322-3.8467-2.6529h9.4509c0.0995-0.39793 0.23213-1.3928 0.23213-2.3876 0-4.4436-2.3213-8.025-7.2291-8.025-4.0457 0-7.9587 3.3161-7.9587 8.6882 0 5.5048 3.714 8.6882 8.5556 8.6882zm-3.1171-10.678c0.33161-1.6581 1.3928-2.3876 2.6529-2.3876 1.7244 0 2.255 1.1275 2.255 2.3876z"/>
</g>
</g>
</svg>
