<?xml version="1.0" encoding="UTF-8"?>
<svg width="480" height="480" version="1.1" viewBox="0 0 127 127" xmlns="http://www.w3.org/2000/svg" xmlns:cc="http://creativecommons.org/ns#" xmlns:dc="http://purl.org/dc/elements/1.1/" xmlns:rdf="http://www.w3.org/1999/02/22-rdf-syntax-ns#">
<metadata>
<rdf:RDF>
<cc:Work rdf:about="">
<dc:format>image/svg+xml</dc:format>
<dc:type rdf:resource="http://purl.org/dc/dcmitype/StillImage"/>
<dc:title/>
</cc:Work>
</rdf:RDF>
</metadata>
<g transform="translate(0 -170)">
<path transform="matrix(.26458 0 0 .26458 0 170)" d="m269.59 207.48l-15.754 29.145-29.143-29.143-22.178 20.049-44.367-4.5801-6.9551-6.9551-32.373 11.668 30.254 28.783-55.086 9.0273 214.53 214.53h171.49v-166.69l-101.34-101.34-18.168 12.561-17.049-17.049-16.703 19.404-12.078-12.078-25.148 12.598-19.926-19.926z" fill="#3dcc00"/>
<g transform="translate(0 .26673)" fill="#fff" stroke="#3dcc00" stroke-width="1.165" aria-label="seven">
<path d="m32.096 242.19c4.6426 0 7.0965-2.3876 7.0965-5.5048 0-2.9845-2.255-4.2446-4.2446-4.9742-1.6581-0.5969-3.1171-0.92852-3.1171-1.7907 0-0.66323 0.49742-0.92852 1.4591-0.92852 1.028 0 2.1886 0.53058 3.3824 1.3928l2.5202-3.3824c-1.4591-1.0943-3.3824-2.1886-6.1016-2.1886-3.913 0-6.5659 2.1223-6.5659 5.3721 0 2.7192 2.255 4.1451 4.1783 4.9078 1.6581 0.66322 3.1835 1.0612 3.1835 1.9233 0 0.66323-0.46426 0.99484-1.6581 0.99484-1.1606 0-2.5202-0.53058-4.0457-1.6581l-2.5202 3.5151c1.7244 1.3928 4.3109 2.3213 6.4333 2.3213z"/>
<path d="m47.527 242.19c1.857 0 4.2446-0.66323 6.0353-1.9234l-1.857-3.3824c-1.1938 0.66322-2.255 0.99483-3.3824 0.99483-1.857 0-3.3161-0.66322-3.8467-2.6529h9.4509c0.09948-0.39793 0.23213-1.3928 0.23213-2.3876 0-4.4436-2.3213-8.025-7.2291-8.025-4.0457 0-7.9587 3.3161-7.9587 8.6882 0 5.5047 3.714 8.6882 8.5556 8.6882zm-3.1171-10.678c0.33161-1.6581 1.3928-2.3876 2.6529-2.3876 1.7244 0 2.255 1.1275 2.255 2.3876z"/>
<path d="m58.729 241.79h6.5659l5.2395-16.581h-5.4384l-1.7907 7.2291c-0.39793 1.6581-0.79587 3.3824-1.1938 5.1731h-0.13264c-0.39793-1.7907-0.79587-3.5151-1.1938-5.1731l-1.7907-7.2291h-5.7037z"/>
<path d="m78.139 242.19c1.857 0 4.2446-0.66323 6.0353-1.9234l-1.857-3.3824c-1.1938 0.66322-2.255 0.99483-3.3824 0.99483-1.857 0-3.3161-0.66322-3.8467-2.6529h9.4509c0.09948-0.39793 0.23213-1.3928 0.23213-2.3876 0-4.4436-2.3213-8.025-7.2291-8.025-4.0457 0-7.9587 3.3161-7.9587 8.6882 0 5.5047 3.714 8.6882 8.5556 8.6882zm-3.1171-10.678c0.33161-1.6581 1.3928-2.3876 2.6529-2.3876 1.7244 0 2.255 1.1275 2.255 2.3876z"/>
<path d="m85.752 241.79h5.7037v-10.877c0.86219-0.79587 1.4591-1.2601 2.5202-1.2601 1.1275 0 1.6581 0.53057 1.6581 2.6529v9.4841h5.7037v-10.214c0-4.112-1.5254-6.7649-5.1731-6.7649-2.255 0-3.913 1.1275-5.2395 2.3876h-0.13264l-0.39793-1.9897h-4.6426z"/>
</g>
</g>
</svg>
