<svg width="480" height="480" viewBox="0 0 127 127" xmlns="http://www.w3.org/2000/svg"><defs><marker id="a" overflow="visible" orient="auto"><path transform="matrix(.8 0 0 .8 10 0)" d="m0 0 5-5-17.5 5L5 5 0 0z" fill="#ff8b00" fill-rule="evenodd"/></marker></defs><path transform="scale(.26458)" d="m172.98 190.71 23.945 23.945-11.076 24.521-10.994-10.994h-18.053l23.43 23.43-7.918 17.525 210.86 210.86h96.83v-105.19l-163.66-163.67-15.076 15.662-19.801-19.801-14.721 21.367-14.545-14.545-29.727 8.32-31.438-31.438h-18.051z" fill="#ff8b00" marker-start="url(#a)"/><g fill="#fff" stroke="#ff8b00" stroke-width="1.165" aria-label="ten"><path d="M50.358 72.324c1.824 0 3.05-.332 3.913-.597l-.862-4.112c-.398.132-.929.265-1.46.265-1.06 0-1.989-.597-1.989-2.42v-5.671h3.78v-4.444h-3.78v-4.31h-4.709l-.663 4.31-2.52.199v4.245h2.188v5.77c0 4.045 1.791 6.764 6.102 6.764z"/><path d="M61.734 72.324c1.857 0 4.245-.664 6.035-1.924l-1.857-3.382c-1.194.663-2.255.995-3.382.995-1.857 0-3.316-.664-3.847-2.653h9.451c.1-.398.232-1.393.232-2.388 0-4.443-2.321-8.025-7.229-8.025-4.046 0-7.959 3.316-7.959 8.688 0 5.505 3.714 8.689 8.556 8.689zm-3.117-10.678c.332-1.658 1.393-2.388 2.653-2.388 1.724 0 2.255 1.127 2.255 2.388zM69.346 71.934h5.704V61.057c.862-.796 1.459-1.26 2.52-1.26 1.127 0 1.658.53 1.658 2.652v9.485h5.704V61.72c0-4.112-1.526-6.765-5.173-6.765-2.255 0-3.913 1.127-5.24 2.387h-.133l-.397-1.99h-4.643z"/></g></svg>