<svg width="480" height="480" viewBox="0 0 127 127" xmlns="http://www.w3.org/2000/svg"><path d="m43.214 48.291-3.587 13.624-5.308-5.308-12.072 6.014 8.787 8.157h-7.896l56.22 56.22h47.64v-49.1l-22.018-22.02-.396 7.744-8.835-8.834-.463 9.063-7.38-7.379-7.043 2.964-4.648-4.648-4.725 7.157-7.155-7.155-.425 8.302-6.596-6.596h-5.896l-8.205-8.205z" fill="#fff" style="fill:#fff;stroke-width:.26458"/><path style="color:#000;fill:#000;stroke-width:1.165;-inkscape-stroke:none" d="M29.319 72.353c1.857 0 4.245-.663 6.035-1.923l-1.857-3.383c-1.193.664-2.255.995-3.382.995-1.857 0-3.316-.663-3.847-2.653h9.451c.1-.398.232-1.393.232-2.387 0-4.444-2.321-8.025-7.229-8.025-4.046 0-7.959 3.316-7.959 8.688 0 5.505 3.714 8.688 8.556 8.688zm-3.117-10.678c.332-1.658 1.393-2.388 2.653-2.388 1.724 0 2.255 1.128 2.255 2.388zm15.837 10.678c1.26 0 2.189-.199 2.785-.464l-.663-4.179c-.265.067-.398.067-.597.067-.398 0-.928-.332-.928-1.46V48.875h-5.704v17.244c0 3.714 1.26 6.234 5.107 6.234z"/><path style="color:#000;fill:#fffcfa;-inkscape-stroke:none" d="M36.35 48.293v13.404c-.195-1.795-.678-3.474-1.723-4.744-1.302-1.583-3.309-2.558-5.904-2.558-4.365 0-8.543 3.614-8.543 9.27 0 2.883.987 5.227 2.64 6.827 1.654 1.6 3.95 2.444 6.498 2.444 1.996 0 4.46-.685 6.371-2.03l.426-.3-2.388-4.352-.514.283c-1.137.633-2.085.922-3.098.922-.859 0-1.574-.154-2.111-.49-.31-.194-.465-.65-.678-.998h8.848l.11-.44c.033-.133.035-.478.066-.672v1.26c0 1.923.315 3.604 1.222 4.852.908 1.248 2.416 1.965 4.467 1.965 1.321 0 2.32-.202 3.022-.514l.408-.182-.832-5.252-.62.157c-.22.055-.254.05-.453.05-.037 0-.088-.002-.162-.093-.074-.091-.183-.313-.183-.786V48.293Zm1.164 1.164h4.539v16.86c0 .655.155 1.164.445 1.52.29.358.705.522 1.066.522.03 0 .078-.01.108-.011l.488 3.078a6.128 6.128 0 0 1-2.12.344c-1.797 0-2.842-.544-3.526-1.485-.684-.94-1-2.375-1-4.166zm-8.791 6.102c2.312 0 3.918.816 5.004 2.134 1.085 1.32 1.642 3.188 1.642 5.309 0 .758-.098 1.367-.172 1.805H25.51l.195.732c.296 1.108.89 1.923 1.68 2.416.789.493 1.732.67 2.73.67 1.058 0 2.076-.323 3.125-.834l1.31 2.385c-1.62.996-3.655 1.594-5.232 1.594-2.293 0-4.273-.748-5.687-2.116-1.414-1.368-2.285-3.368-2.285-5.99 0-5.09 3.649-8.105 7.377-8.105zm.132 3.146c-.742 0-1.47.223-2.048.71-.58.485-.99 1.216-1.176 2.146l-.139.697h6.201v-.582c0-.712-.144-1.445-.607-2.03-.463-.584-1.241-.94-2.23-.94zm0 1.164c.735 0 1.083.207 1.317.502.129.163.138.47.197.72h-3.228c.138-.264.228-.63.414-.786.35-.294.783-.436 1.3-.436z"/><path style="color:#000;fill:#000;stroke-width:1.165;-inkscape-stroke:none" d="M52.418 72.353c1.857 0 4.245-.663 6.035-1.923l-1.857-3.383c-1.194.664-2.255.995-3.382.995-1.857 0-3.316-.663-3.847-2.653h9.451c.1-.398.232-1.393.232-2.387 0-4.444-2.321-8.025-7.229-8.025-4.046 0-7.959 3.316-7.959 8.688 0 5.505 3.714 8.688 8.556 8.688zm-3.117-10.678c.332-1.658 1.393-2.388 2.653-2.388 1.724 0 2.255 1.128 2.255 2.388zM63.62 71.953h6.566l5.24-16.581h-5.44l-1.79 7.23a314.77 314.77 0 0 0-1.194 5.172h-.133a314.77 314.77 0 0 0-1.194-5.173l-1.79-7.229h-5.704zm19.41.4c1.857 0 4.245-.663 6.035-1.923l-1.857-3.383c-1.193.664-2.255.995-3.382.995-1.857 0-3.316-.663-3.847-2.653h9.451c.1-.398.232-1.393.232-2.387 0-4.444-2.321-8.025-7.229-8.025-4.046 0-7.959 3.316-7.959 8.688 0 5.505 3.714 8.688 8.556 8.688zm-3.117-10.678c.332-1.658 1.393-2.388 2.653-2.388 1.724 0 2.255 1.128 2.255 2.388zm10.729 10.278h5.704V61.076c.862-.796 1.459-1.26 2.52-1.26 1.127 0 1.658.53 1.658 2.653v9.484h5.704V61.739c0-4.112-1.526-6.765-5.173-6.765-2.255 0-3.913 1.127-5.24 2.388h-.133l-.397-1.99h-4.643z"/><path style="color:#000;fill:#fffcfa;-inkscape-stroke:none" d="M101.055 54.39c-2.105 0-3.669.965-4.961 2.053l-.33-1.654h-5.705v6.895c-.196-1.79-.679-3.464-1.721-4.73-1.302-1.584-3.309-2.56-5.904-2.56-3.258 0-6.403 2.02-7.793 5.393l1.58-4.998h-6.692l-1.898 7.676-.002.002c-.24 1-.464 2.003-.693 3.006-.23-1.003-.454-2.008-.694-3.008l-.002-.002-1.898-7.674h-6.965l1.31 3.992c-.282-.637-.527-1.3-.96-1.828-1.303-1.583-3.311-2.558-5.907-2.558-4.364 0-8.54 3.614-8.54 9.27 0 2.883.986 5.227 2.64 6.827 1.653 1.6 3.95 2.444 6.498 2.444 1.996 0 4.46-.685 6.371-2.03l.426-.3-2.39-4.352-.513.283c-1.137.633-2.084.922-3.097.922-.86 0-1.576-.154-2.113-.49-.31-.194-.463-.65-.676-.998h8.845l.112-.44c.126-.503.25-1.483.25-2.529 0-.822-.173-1.578-.328-2.338l3.892 11.871h7.416l3.979-12.592a10.118 10.118 0 0 0-.701 3.721c0 2.884.987 5.228 2.64 6.828 1.654 1.6 3.95 2.444 6.498 2.444 1.996 0 4.46-.685 6.371-2.03l.426-.3-2.388-4.352-.514.283c-1.137.633-2.085.922-3.098.922-.859 0-1.574-.154-2.111-.49-.31-.194-.465-.65-.678-.998h8.848l.11-.44c.032-.13.033-.466.064-.652v7.656h6.869V61.352c.702-.638 1.126-.954 1.937-.954.472 0 .62.056.772.278.152.221.304.78.304 1.793v10.066h6.87V61.738c0-2.128-.385-3.938-1.327-5.261-.941-1.324-2.465-2.086-4.43-2.086zm0 1.167c1.682 0 2.747.565 3.48 1.595.733 1.031 1.11 2.602 1.11 4.586v9.633h-4.538V62.47c0-1.11-.114-1.879-.51-2.453-.394-.575-1.077-.782-1.732-.782-1.23 0-2.036.604-2.914 1.414l-.187.172v10.551h-4.54V55.955h3.583l.398 1.99h.842l.17-.16c1.277-1.213 2.777-2.228 4.838-2.228zm-49.235.002c2.313 0 3.921.816 5.006 2.134 1.085 1.32 1.64 3.188 1.64 5.309 0 .758-.097 1.368-.171 1.805h-9.686l.196.732c.295 1.108.89 1.923 1.68 2.416.788.493 1.732.67 2.73.67 1.059 0 2.075-.322 3.125-.834l1.308 2.385c-1.62.996-3.654 1.594-5.23 1.594-2.293 0-4.275-.748-5.69-2.116-1.414-1.368-2.283-3.368-2.283-5.99 0-5.089 3.648-8.105 7.375-8.105zm30.614 0c2.312 0 3.918.816 5.004 2.134 1.085 1.32 1.642 3.188 1.642 5.309 0 .758-.098 1.368-.172 1.805h-9.687l.195.732c.296 1.108.89 1.923 1.68 2.416.789.493 1.732.67 2.73.67 1.058 0 2.076-.323 3.125-.834l1.31 2.385c-1.62.996-3.655 1.594-5.232 1.594-2.293 0-4.273-.748-5.687-2.116-1.414-1.368-2.285-3.368-2.285-5.99 0-5.089 3.649-8.105 7.377-8.105zm-23.45.396h4.446l1.68 6.785c.41 1.717.808 3.437 1.19 5.16l.102.457h1.067l.101-.457c.383-1.722.78-3.442 1.192-5.158v-.004l1.68-6.783h4.189L69.76 71.371h-5.717zm-7.03 2.75c-.743 0-1.471.223-2.05.71-.578.485-.987 1.216-1.174 2.146l-.14.697h6.201v-.582c0-.712-.144-1.445-.607-2.03-.463-.584-1.242-.94-2.23-.94zm30.612 0c-.742 0-1.47.223-2.048.71-.58.485-.99 1.216-1.176 2.146l-.139.697h6.201v-.582c0-.712-.144-1.445-.607-2.03-.463-.584-1.242-.94-2.23-.94zM51.953 59.87c.735 0 1.085.207 1.318.502.13.163.139.47.198.72H50.24c.139-.264.229-.63.414-.786.35-.294.782-.436 1.3-.436zm30.613 0c.735 0 1.083.207 1.317.502.129.163.138.47.197.72h-3.228c.138-.264.228-.63.414-.786.35-.294.783-.436 1.3-.436z"/></svg>