<?xml version="1.0" encoding="UTF-8"?>
<svg width="480" height="480" version="1.1" viewBox="0 0 127 127" xmlns="http://www.w3.org/2000/svg" xmlns:cc="http://creativecommons.org/ns#" xmlns:dc="http://purl.org/dc/elements/1.1/" xmlns:rdf="http://www.w3.org/1999/02/22-rdf-syntax-ns#">
<metadata>
<rdf:RDF>
<cc:Work rdf:about="">
<dc:format>image/svg+xml</dc:format>
<dc:type rdf:resource="http://purl.org/dc/dcmitype/StillImage"/>
<dc:title/>
</cc:Work>
</rdf:RDF>
</metadata>
<g transform="translate(0 -170)">
<path transform="matrix(.26458 0 0 .26458 0 170)" d="m163.33 182.52l-13.557 51.492-20.061-20.061-45.629 22.73 33.211 30.828h-29.842l212.49 212.49h180.06v-185.58l-83.221-83.221-1.498 29.268-33.391-33.391-1.752 34.256-27.891-27.891-26.621 11.201-17.566-17.566-17.859 27.051-27.043-27.043-1.6074 31.379-24.93-24.932h-22.285l-31.01-31.01z" fill="#ff4d00"/>
<g transform="translate(-.0038106 -2.8868)" fill="#fff" stroke="#ff4d00" stroke-width="1.165" aria-label="eleven">
<path d="m29.323 245.24c1.857 0 4.2446-0.66322 6.0353-1.9233l-1.857-3.3824c-1.1938 0.66322-2.255 0.99483-3.3824 0.99483-1.857 0-3.3161-0.66322-3.8467-2.6529h9.4509c0.09948-0.39793 0.23213-1.3928 0.23213-2.3876 0-4.4436-2.3213-8.025-7.2291-8.025-4.0457 0-7.9587 3.3161-7.9587 8.6882 0 5.5048 3.714 8.6882 8.5556 8.6882zm-3.1171-10.678c0.33161-1.6581 1.3928-2.3876 2.6529-2.3876 1.7244 0 2.255 1.1275 2.255 2.3876z"/>
<path d="m42.043 245.24c1.2601 0 2.1886-0.19896 2.7855-0.46425l-0.66322-4.1783c-0.26529 0.0663-0.39793 0.0663-0.5969 0.0663-0.39793 0-0.92851-0.33161-0.92851-1.4591v-17.443h-5.7037v17.244c0 3.714 1.2601 6.2343 5.1068 6.2343z"/>
<path d="m52.422 245.24c1.857 0 4.2446-0.66322 6.0353-1.9233l-1.857-3.3824c-1.1938 0.66322-2.255 0.99483-3.3824 0.99483-1.857 0-3.3161-0.66322-3.8467-2.6529h9.4509c0.09948-0.39793 0.23213-1.3928 0.23213-2.3876 0-4.4436-2.3213-8.025-7.2291-8.025-4.0457 0-7.9587 3.3161-7.9587 8.6882 0 5.5048 3.714 8.6882 8.5556 8.6882zm-3.1171-10.678c0.33161-1.6581 1.3928-2.3876 2.6529-2.3876 1.7244 0 2.255 1.1275 2.255 2.3876z"/>
<path d="m63.624 244.84h6.5659l5.2395-16.581h-5.4384l-1.7907 7.2291c-0.39793 1.658-0.79587 3.3824-1.1938 5.1731h-0.13264c-0.39793-1.7907-0.79587-3.5151-1.1938-5.1731l-1.7907-7.2291h-5.7037z"/>
<path d="m83.034 245.24c1.857 0 4.2446-0.66322 6.0353-1.9233l-1.857-3.3824c-1.1938 0.66322-2.255 0.99483-3.3824 0.99483-1.857 0-3.3161-0.66322-3.8467-2.6529h9.4509c0.09948-0.39793 0.23213-1.3928 0.23213-2.3876 0-4.4436-2.3213-8.025-7.2291-8.025-4.0457 0-7.9587 3.3161-7.9587 8.6882 0 5.5048 3.714 8.6882 8.5556 8.6882zm-3.1171-10.678c0.33161-1.6581 1.3928-2.3876 2.6529-2.3876 1.7244 0 2.255 1.1275 2.255 2.3876z"/>
<path d="m90.646 244.84h5.7037v-10.877c0.86219-0.79587 1.4591-1.2601 2.5202-1.2601 1.1275 0 1.6581 0.53058 1.6581 2.6529v9.4841h5.7037v-10.214c0-4.112-1.5254-6.7649-5.1731-6.7649-2.255 0-3.913 1.1275-5.2395 2.3876h-0.13264l-0.39793-1.9897h-4.6426z"/>
</g>
</g>
</svg>
