<svg width="480" height="480" viewBox="0 0 127 127" xmlns="http://www.w3.org/2000/svg"><path d="m51.553 48.193-.59 4.724h-5.015l4.459 4.459-.714 5.717-6.474-6.474H38.26l-.808-.568-.223.568H35.28l1.4 1.4-4.92 12.531 56.448 56.448h38.79V84.046l-33.47-33.47-6.798 8.461-3.096-3.096-.376.092-7.646-7.645-4.476 4.77 4.718 4.677-11.79 2.869-12.51-12.51z" fill="#c0d116"/><g fill="#fff" stroke="#c0d116" stroke-width="1.165" aria-label="eight"><path d="M38.296 72.447c1.857 0 4.245-.663 6.035-1.923l-1.857-3.382c-1.193.663-2.255.994-3.382.994-1.857 0-3.316-.663-3.847-2.652h9.451c.1-.398.232-1.393.232-2.388 0-4.444-2.321-8.025-7.229-8.025-4.046 0-7.959 3.316-7.959 8.688 0 5.505 3.714 8.688 8.556 8.688zM35.179 61.77c.332-1.658 1.393-2.387 2.653-2.387 1.724 0 2.255 1.127 2.255 2.387zM45.909 72.047h5.704v-16.58h-5.704zm2.852-18.637c1.857 0 3.183-1.194 3.183-2.852s-1.326-2.851-3.183-2.851-3.184 1.193-3.184 2.851 1.327 2.852 3.184 2.852zM59.348 78.887c5.903 0 9.617-2.454 9.617-6.035 0-3.05-2.388-4.31-6.533-4.31h-2.487c-1.658 0-2.321-.266-2.321-.996 0-.464.066-.663.398-.961.73.165 1.326.232 1.857.232 3.714 0 6.698-1.592 6.698-5.505 0-.663-.133-1.326-.265-1.724h2.387v-4.112h-6.168c-.796-.266-1.724-.398-2.653-.398-3.647 0-7.096 1.923-7.096 6.035a5.14 5.14 0 0 0 2.255 4.245v.132c-1.128.796-1.857 1.99-1.857 3.117 0 1.393.663 2.255 1.525 2.852v.133c-1.525.796-2.321 1.824-2.321 3.183 0 2.985 3.184 4.112 6.964 4.112zm.53-15.453c-1.06 0-1.79-.73-1.79-2.321 0-1.525.73-2.255 1.79-2.255 1.062 0 1.791.73 1.791 2.255 0 1.592-.73 2.321-1.79 2.321zm.399 11.938c-1.924 0-3.25-.464-3.25-1.525 0-.464.199-.796.597-1.194.464.133 1.06.2 2.387.2h1.294c1.425 0 2.221.132 2.221.994 0 .928-1.392 1.525-3.25 1.525zM69.331 72.047h5.704V61.17c.862-.796 1.459-1.26 2.52-1.26 1.127 0 1.658.53 1.658 2.653v9.484h5.704V61.833c0-4.112-1.526-6.765-5.173-6.765-2.255 0-3.847 1.128-4.975 2.123l.266-2.852v-5.372H69.33zM93.346 72.447c1.824 0 3.05-.331 3.913-.597l-.862-4.112c-.398.133-.929.266-1.46.266-1.06 0-1.989-.597-1.989-2.421v-5.67h3.78v-4.444h-3.78v-4.311h-4.709l-.663 4.31-2.52.2v4.244h2.188v5.77c0 4.046 1.791 6.765 6.102 6.765z"/></g></svg>