<?xml version="1.0" encoding="UTF-8"?>
<svg width="480" height="480" version="1.1" viewBox="0 0 127 127" xmlns="http://www.w3.org/2000/svg" xmlns:cc="http://creativecommons.org/ns#" xmlns:dc="http://purl.org/dc/elements/1.1/" xmlns:rdf="http://www.w3.org/1999/02/22-rdf-syntax-ns#">
<metadata>
<rdf:RDF>
<cc:Work rdf:about="">
<dc:format>image/svg+xml</dc:format>
<dc:type rdf:resource="http://purl.org/dc/dcmitype/StillImage"/>
<dc:title/>
</cc:Work>
</rdf:RDF>
</metadata>
<g transform="translate(0 -170)">
<path transform="matrix(.26458 0 0 .26458 0 170)" d="m232.55 206.96l-5.1777 26.869-5.2559 1.1211-20.434-20.434h-24.812l24.795 24.795-4.7168 1.0059-20.078-25.801-14.629 32.266 7.7715 18.789h-15.045l214.43 214.43h110.6v-112.35l-154.71-154.71-46.164 9.8438-12.189-12.189h-24.814l16.551 16.551-4.8867 1.041-21.236-21.236z" fill="#960096"/>
<g transform="translate(-.0010335 .12943)" fill="#fff" stroke="#960096" stroke-width="1.165" aria-label="one">
<path d="m47.302 242.19c4.2446 0 8.224-3.1835 8.224-8.6882 0-5.5048-3.9793-8.6882-8.224-8.6882s-8.224 3.1835-8.224 8.6882c0 5.5047 3.9793 8.6882 8.224 8.6882zm0-4.5762c-1.7244 0-2.3876-1.5917-2.3876-4.112 0-2.5202 0.66322-4.112 2.3876-4.112 1.7244 0 2.3876 1.5917 2.3876 4.112 0 2.5202-0.66322 4.112-2.3876 4.112z"/>
<path d="m56.412 241.79h5.7037v-10.877c0.86219-0.79587 1.4591-1.2601 2.5202-1.2601 1.1275 0 1.6581 0.53057 1.6581 2.6529v9.4841h5.7037v-10.214c0-4.112-1.5254-6.7649-5.1731-6.7649-2.255 0-3.913 1.1275-5.2395 2.3876h-0.13264l-0.39793-1.9897h-4.6426z"/>
<path d="m81.29 242.19c1.857 0 4.2446-0.66323 6.0353-1.9234l-1.857-3.3824c-1.1938 0.66322-2.255 0.99483-3.3824 0.99483-1.857 0-3.3161-0.66322-3.8467-2.6529h9.4509c0.09948-0.39793 0.23213-1.3928 0.23213-2.3876 0-4.4436-2.3213-8.025-7.2291-8.025-4.0457 0-7.9587 3.3161-7.9587 8.6882 0 5.5047 3.714 8.6882 8.5556 8.6882zm-3.1171-10.678c0.33161-1.6581 1.3928-2.3876 2.6529-2.3876 1.7244 0 2.255 1.1275 2.255 2.3876z"/>
</g>
</g>
</svg>
