<svg width="480" height="480" viewBox="0 0 127 127" xmlns="http://www.w3.org/2000/svg"><path d="M45.698 48.68 35.083 59.33l1.275 1.043h-4.2l9.254 9.254-7.066 2.883 54.488 54.487H127v-39.98L94.914 54.93l-4.341 2.942-3.108-3.108-2.458 5.637-5.636-5.636-2.792 6.956-6.956-6.956-3.31 9.683-7.617-7.617h-4.845l-8.153-8.153z" fill="#fff" style="stroke-width:.26458"/><path style="color:#000;fill:#000;stroke-width:1.165;-inkscape-stroke:none" d="M34.93 71.934h5.704V59.797h2.785v-4.444h-2.785v-.398c0-1.558.663-2.056 1.724-2.056.53 0 1.128.133 1.658.332l.995-4.179a10.55 10.55 0 0 0-3.515-.596c-4.908 0-6.566 3.15-6.566 6.698v.232l-2.189.166v4.245h2.189z"/><path style="color:#000;fill:#fff;-inkscape-stroke:none" d="M41.496 47.873c-2.578 0-4.425.857-5.57 2.229-1.145 1.371-1.578 3.187-1.578 5.052v-.308l-2.19.166v5.367h2.19v12.137h6.869V60.379h2.785V54.77h-2.738c.035-.505.125-.887.26-1.03.158-.17.394-.259.833-.259.434 0 .98.115 1.456.293l.617.233 1.267-5.326-.486-.176a11.091 11.091 0 0 0-3.715-.633zm0 1.164c1.22 0 2.105.258 2.807.477l-.725 3.045c-.406-.106-.81-.243-1.22-.243-.622 0-1.248.16-1.686.63-.438.468-.621 1.147-.621 2.01v.98h2.785v3.279H40.05v12.137h-4.54V59.215h-2.187v-3.123l2.188-.166v-.772c0-1.683.398-3.216 1.308-4.306.911-1.091 2.347-1.81 4.676-1.81z"/><path style="color:#000;fill:#000;stroke-width:1.165;-inkscape-stroke:none" d="M52.568 72.334c4.245 0 8.224-3.184 8.224-8.689 0-5.504-3.98-8.688-8.224-8.688-4.245 0-8.224 3.184-8.224 8.688 0 5.505 3.98 8.689 8.224 8.689zm0-4.577c-1.724 0-2.388-1.591-2.388-4.112 0-2.52.664-4.112 2.388-4.112 1.724 0 2.388 1.592 2.388 4.112s-.664 4.112-2.388 4.112z"/><path style="color:#000;fill:#fff;-inkscape-stroke:none" d="M52.568 54.375c-4.536 0-8.806 3.484-8.806 9.27 0 5.785 4.27 9.271 8.806 9.271s8.807-3.486 8.807-9.271c0-5.786-4.27-9.27-8.807-9.27zm0 1.164c3.954 0 7.641 2.882 7.641 8.106 0 5.223-3.687 8.107-7.64 8.107-3.954 0-7.643-2.883-7.643-8.107 0-5.224 3.689-8.106 7.642-8.106zm0 3.412c-1.041 0-1.895.562-2.353 1.418-.458.857-.617 1.964-.617 3.276 0 1.31.159 2.42.617 3.277.458.856 1.312 1.418 2.353 1.418 1.042 0 1.896-.562 2.354-1.418.458-.857.617-1.966.617-3.277 0-1.312-.16-2.42-.617-3.276-.458-.856-1.312-1.418-2.354-1.418zm0 1.164c.683 0 1.022.235 1.327.805.304.57.478 1.515.478 2.725 0 1.209-.174 2.157-.478 2.726-.305.57-.644.805-1.327.805-.683 0-1.023-.235-1.328-.805-.304-.57-.476-1.517-.476-2.726 0-1.21.172-2.156.476-2.725.305-.57.645-.805 1.328-.805z"/><path style="color:#000;fill:#000;stroke-width:1.165;-inkscape-stroke:none" d="M68.512 72.334c2.255 0 3.78-.995 5.107-2.587h.132l.398 2.189h4.643V55.355h-5.704v10.678c-.73 1.06-1.326 1.459-2.387 1.459-1.128 0-1.658-.53-1.658-2.653v-9.484h-5.704v10.214c0 4.112 1.525 6.765 5.173 6.765z"/><path style="color:#000;fill:#fff;-inkscape-stroke:none" d="M62.756 54.771v10.797c0 2.128.384 3.938 1.326 5.262.942 1.324 2.465 2.086 4.43 2.086 2.057 0 3.553-.916 4.828-2.18l.324 1.782h5.711V54.77h-6.87v11.041c-.291.402-.553.704-.794.854-.272.17-.552.244-1.01.244-.472 0-.62-.058-.771-.28-.153-.22-.305-.778-.305-1.79V54.77zm1.166 1.167h4.539v8.902c0 1.11.113 1.877.508 2.451.395.575 1.077.783 1.732.783.604 0 1.151-.125 1.625-.42s.855-.727 1.242-1.29l.102-.151V55.938h4.539v15.416h-3.574l-.397-2.19h-.892l-.174.211c-1.262 1.515-2.577 2.377-4.66 2.377-1.683 0-2.748-.565-3.48-1.596-.734-1.03-1.11-2.604-1.11-4.588z"/><path style="color:#000;fill:#000;stroke-width:1.165;-inkscape-stroke:none" d="M82.32 71.934h5.704v-9.22c.796-2.055 2.255-2.785 3.448-2.785.73 0 1.26.133 1.858.266l.928-4.908c-.464-.2-1.028-.332-2.056-.332-1.625 0-3.482.995-4.709 3.25h-.133l-.397-2.852H82.32z"/><path style="color:#000;fill:#fff;-inkscape-stroke:none" d="M92.201 54.373c-1.551 0-3.14 1-4.416 2.658l-.316-2.26h-5.73v17.745h6.866V62.87c.73-1.811 1.925-2.36 2.868-2.36.659 0 1.124.118 1.73.253l.588.13 1.127-5.958-.43-.184c-.535-.23-1.209-.379-2.287-.379Zm0 1.164c.736 0 1.035.11 1.375.215l-.715 3.791c-.427-.089-.828-.195-1.388-.195-1.431 0-3.127.92-3.993 3.156l-.039.101v8.747h-4.539V55.936h3.553l.399 2.851h.986l.164-.303c1.143-2.101 2.81-2.947 4.197-2.947z"/></svg>