<svg width="480" height="480" viewBox="0 0 127 127" xmlns="http://www.w3.org/2000/svg"><path d="m76.884 48.146-4.432 12.75-4.716-4.716-7.903 2.605-4.138-4.139-4.267 3.113 6.448 9.209-12.321-12.321-4.267 3.113 4.577 6.536-9.647-9.647-2.793 2.037-6.346-6.347-4.267 3.114 3.795 5.418-8.55 1.382 10.65 10.65-6.477.267 55.829 55.829h48.94v-50.31l-20.497-20.496-8.35 1.662-3.227-3.226-2.982 8.579-15.06-15.06Z" fill="#fff" style="stroke-width:.26458;fill:#fff"/><path style="color:#000;fill:#000;stroke-width:1.165" d="M26.929 72.212c1.824 0 3.05-.331 3.913-.597l-.862-4.111c-.398.132-.929.265-1.46.265-1.06 0-1.989-.597-1.989-2.421v-5.67h3.78v-4.444h-3.78v-4.311h-4.709l-.663 4.31-2.52.2v4.244h2.188v5.77c0 4.046 1.791 6.765 6.102 6.765z"/><path style="color:#000;fill:#fff" d="m21.322 50.34-.67 4.35-2.595.205v5.365h2.187v5.187c0 2.109.465 3.943 1.57 5.272 1.043 1.253 2.686 1.936 4.776 2.015l.045.06h.295c1.894 0 3.203-.351 4.084-.622l.507-.156-1.105-5.272-.621.207c-.361.12-.84.235-1.274.235-.42 0-.74-.106-.974-.348-.234-.242-.434-.677-.434-1.49V60.26h3.782v-5.61h-3.782v-4.31zm1 1.166h3.627v4.31h3.78v3.28h-3.78v6.252c0 1.01.265 1.786.76 2.298.495.513 1.173.706 1.812.706.384 0 .678-.103 1.004-.18l.621 2.967c-.8.228-1.705.488-3.203.49h-.013c-2.033 0-3.353-.612-4.221-1.654-.868-1.043-1.299-2.59-1.299-4.528v-6.351h-2.19V55.97l2.444-.194z"/><path style="color:#000;fill:#000;stroke-width:1.165" d="M34.11 71.812h6.5l1.127-5.77c.265-1.525.464-3.05.73-4.874h.132c.266 1.824.53 3.349.796 4.874l1.194 5.77h6.632l3.78-16.58h-5.239l-1.26 6.963c-.265 1.658-.398 3.316-.663 5.04h-.133c-.332-1.724-.597-3.382-.995-5.04l-1.591-6.964h-4.842l-1.525 6.964c-.398 1.592-.664 3.316-.929 5.04h-.132c-.266-1.724-.398-3.382-.664-5.04l-1.26-6.964h-5.637z"/><path style="color:#000;fill:#fff" d="m29.393 54.648 4.257 17.747h7.44l1.22-6.247v-.005c.09-.515.166-1.109.245-1.631.088.52.177 1.122.265 1.63l.002.008 1.293 6.244h7.57l4.047-17.746h-6.457l-1.347 7.45v.006c-.105.652-.177 1.301-.256 1.949-.128-.66-.234-1.327-.393-1.989l-.002-.005-1.693-7.41h-5.775l-1.625 7.421c-.148.593-.223 1.236-.34 1.852-.074-.604-.143-1.21-.24-1.819l-.002-.005-1.348-7.45zm1.476 1.166h4.412l1.174 6.485c.26 1.624.391 3.278.66 5.025l.076.494h1.133l.076-.494c.266-1.724.53-3.433.918-4.988l.002-.008 1.426-6.514h3.908l1.49 6.514v.004c.392 1.63.657 3.278.99 5.014l.09.472h1.114l.076-.494c.269-1.747.401-3.4.66-5.025l.002-.008v-.004l1.172-6.473h4.024L50.756 71.23h-5.694l-1.093-5.287v-.004l-.004-.015a167.8 167.8 0 0 1-.79-4.84l-.071-.498h-1.141l-.072.498c-.266 1.829-.464 3.35-.727 4.86l-1.033 5.286h-5.563z"/><path style="color:#000;fill:#000;stroke-width:1.165" d="M63.001 72.212c1.857 0 4.245-.663 6.035-1.923l-1.857-3.382c-1.194.663-2.255.995-3.382.995-1.857 0-3.316-.664-3.847-2.653h9.451c.1-.398.232-1.393.232-2.388 0-4.444-2.321-8.025-7.229-8.025-4.046 0-7.959 3.316-7.959 8.688 0 5.505 3.714 8.688 8.556 8.688zm-3.117-10.678c.332-1.658 1.393-2.387 2.653-2.387 1.724 0 2.255 1.127 2.255 2.387z"/><path style="color:#000;fill:#fff" d="M62.404 54.254c-4.364 0-8.54 3.614-8.54 9.27 0 2.883.985 5.228 2.638 6.828 1.653 1.6 3.951 2.443 6.5 2.443h1.406l-.193-.191c1.733-.21 3.605-.747 5.156-1.838l.426-.301-2.389-4.352-.512.285c-1.137.633-2.086.92-3.1.92-.858 0-1.573-.154-2.11-.49-.31-.193-.461-.65-.674-.996h8.843l.112-.441c.125-.502.248-1.483.248-2.53 0-2.323-.604-4.466-1.906-6.048-1.303-1.583-3.31-2.56-5.905-2.56zm0 1.164c2.313 0 3.92.816 5.006 2.135 1.085 1.319 1.64 3.188 1.64 5.308 0 .758-.097 1.367-.171 1.805H59.19l.196.732c.295 1.108.892 1.923 1.681 2.416.79.494 1.731.67 2.729.67 1.059 0 2.076-.323 3.125-.834l1.31 2.385c-1.621.997-3.654 1.596-5.23 1.596-2.293 0-4.276-.75-5.69-2.117-1.413-1.368-2.285-3.37-2.285-5.99 0-5.09 3.65-8.106 7.377-8.106zm.133 3.146c-.742 0-1.47.224-2.049.71-.579.485-.99 1.216-1.175 2.146l-.14.697h6.202v-.582c0-.712-.144-1.445-.607-2.03-.463-.583-1.242-.94-2.23-.94zm0 1.165c.735 0 1.083.207 1.317.501.129.163.138.47.197.721h-3.229c.138-.265.229-.631.414-.787.35-.293.783-.435 1.301-.435z"/><path style="color:#000;fill:#000;stroke-width:1.165" d="M75.72 72.212c1.26 0 2.189-.199 2.785-.464l-.663-4.178c-.265.066-.398.066-.597.066-.398 0-.928-.331-.928-1.459V48.734h-5.704v17.244c0 3.714 1.26 6.234 5.107 6.234z"/><path style="color:#000;fill:#fff" d="M70.031 48.152V65.98c0 1.922.315 3.603 1.223 4.851.844 1.16 2.258 1.8 4.094 1.893l.043.072h.33c1.321 0 2.318-.201 3.021-.514l.408-.181-.832-5.25-.617.154c-.22.055-.256.049-.455.049-.037 0-.088-.001-.162-.092-.074-.09-.186-.31-.186-.783V48.152zm1.164 1.164h4.54v16.862c0 .655.154 1.162.445 1.52.29.356.705.52 1.066.52.029 0 .077-.01.108-.011l.488 3.08a6.14 6.14 0 0 1-2.11.342h-.011c-1.796 0-2.842-.544-3.526-1.484-.684-.941-1-2.375-1-4.166z"/><path style="color:#000;fill:#000;stroke-width:1.165" d="M82.319 71.812h6.566l5.24-16.58h-5.439l-1.79 7.228a314.77 314.77 0 0 0-1.194 5.174h-.133a314.77 314.77 0 0 0-1.194-5.173l-1.79-7.23H76.88z"/><path style="color:#000;fill:#fff" d="m76.076 54.648 5.82 17.747h7.417l5.607-17.747h-6.69l-1.9 7.674-.002.002c-.231.964-.462 1.998-.693 3.006-.231-1.008-.462-2.042-.694-3.006v-.002l-1.9-7.674zm1.608 1.166h4.445L83.81 62.6c.396 1.653.792 3.373 1.189 5.16l.102.457h1.066l.102-.457c.397-1.787.794-3.507 1.19-5.16v-.004l1.683-6.782h4.185L88.46 71.23h-5.717z"/><path style="color:#000;fill:#000;stroke-width:1.165" d="M101.73 72.212c1.857 0 4.245-.663 6.035-1.923l-1.857-3.382c-1.193.663-2.255.995-3.382.995-1.857 0-3.316-.664-3.847-2.653h9.451c.1-.398.232-1.393.232-2.388 0-4.444-2.321-8.025-7.229-8.025-4.046 0-7.959 3.316-7.959 8.688 0 5.505 3.714 8.688 8.556 8.688zm-3.117-10.678c.332-1.658 1.393-2.387 2.653-2.387 1.724 0 2.255 1.127 2.255 2.387z"/><path style="color:#000;fill:#fff" d="M101.133 54.254c-4.364 0-8.541 3.614-8.541 9.27 0 2.883.987 5.228 2.64 6.828 1.654 1.6 3.95 2.443 6.498 2.443h1.407l-.192-.191c1.733-.21 3.604-.747 5.155-1.838l.427-.301-2.39-4.352-.512.285c-1.138.633-2.086.92-3.1.92-.859 0-1.574-.154-2.11-.49-.31-.193-.462-.65-.675-.996h8.844l.111-.441c.126-.502.25-1.483.25-2.53 0-2.323-.606-4.466-1.908-6.048-1.302-1.583-3.309-2.56-5.904-2.56zm0 1.164c2.312 0 3.92.816 5.006 2.135 1.085 1.319 1.64 3.188 1.64 5.308 0 .758-.098 1.367-.172 1.805h-9.685l.195.732c.296 1.108.89 1.923 1.68 2.416.789.494 1.73.67 2.728.67 1.06 0 2.078-.323 3.127-.834l1.309 2.385c-1.622.997-3.654 1.596-5.23 1.596-2.294 0-4.276-.75-5.69-2.117-1.414-1.368-2.283-3.37-2.283-5.99 0-5.09 3.647-8.106 7.375-8.106zm.133 3.146c-.743 0-1.47.224-2.05.71-.578.485-.989 1.216-1.175 2.146l-.139.697h6.201v-.582c0-.712-.144-1.445-.607-2.03-.463-.583-1.241-.94-2.23-.94zm0 1.165c.735 0 1.085.207 1.318.501.129.163.136.47.195.721h-3.228c.138-.265.228-.631.414-.787.35-.293.783-.435 1.3-.435z"/></svg>