<svg width="480" height="480" viewBox="0 0 127 127" xmlns="http://www.w3.org/2000/svg"><path d="m40 50.363 6.639 6.64-2.136 5.145-1.867-1.868h-5.847l6 6-1.974 4.756L96.78 127h30.218V96.203l-39.441-39.44-7.604 3.4-5.488-5.488-4.845 5.165-5.301-5.165-2.466 6.865-6.865-6.865h-4.83l-4.31-4.31H40z" fill="#a400cc"/><g fill="#fff" stroke="#a400cc" stroke-width="1.165" aria-label="two"><path d="M45.663 72.228c1.824 0 3.05-.331 3.913-.597l-.862-4.112c-.398.133-.929.266-1.46.266-1.06 0-1.989-.597-1.989-2.421v-5.67h3.78V55.25h-3.78v-4.311h-4.709l-.663 4.31-2.52.2v4.244h2.188v5.77c0 4.046 1.791 6.765 6.102 6.765z"/><path d="M52.844 71.838h6.5l1.127-5.77c.265-1.525.464-3.05.73-4.874h.132c.266 1.824.53 3.349.796 4.874l1.194 5.77h6.632l3.78-16.58h-5.239l-1.26 6.963c-.265 1.658-.398 3.316-.663 5.04h-.133c-.332-1.724-.597-3.382-.995-5.04l-1.591-6.964h-4.842l-1.525 6.964c-.398 1.592-.664 3.316-.929 5.04h-.132c-.266-1.724-.398-3.382-.664-5.04l-1.26-6.964h-5.637zM81.404 72.228c4.245 0 8.224-3.183 8.224-8.688 0-5.505-3.98-8.688-8.224-8.688s-8.224 3.183-8.224 8.688c0 5.505 3.98 8.688 8.224 8.688zm0-4.576c-1.724 0-2.388-1.592-2.388-4.112s.664-4.112 2.388-4.112 2.388 1.592 2.388 4.112-.664 4.112-2.388 4.112z"/></g></svg>