<?xml version="1.0" encoding="UTF-8"?>
<svg width="480" height="480" version="1.1" viewBox="0 0 127 127" xmlns="http://www.w3.org/2000/svg" xmlns:cc="http://creativecommons.org/ns#" xmlns:dc="http://purl.org/dc/elements/1.1/" xmlns:rdf="http://www.w3.org/1999/02/22-rdf-syntax-ns#">
<metadata>
<rdf:RDF>
<cc:Work rdf:about="">
<dc:format>image/svg+xml</dc:format>
<dc:type rdf:resource="http://purl.org/dc/dcmitype/StillImage"/>
<dc:title/>
</cc:Work>
</rdf:RDF>
</metadata>
<path transform="scale(.26458)" d="m232.53 410.1l-11.514 11.514 10.961 10.963-12.451 35.646 11.777 11.779h158.94l-67.363-67.363-26.275 15.697-18.238-18.236-8.6875 18.49-15.146-15.145-9.3262 9.3281-12.674-12.674z" fill="#4d4d4d"/>
<g transform="matrix(1.2495 0 0 1.2495 18.364 11.889)" fill="#fff" stroke="#4d4d4d" stroke-width=".79375" aria-label="pm">
<path d="m32.186 89.236h2.4892v-2.4553l-0.08467-1.3377c0.59267 0.5588 1.27 0.88053 1.9981 0.88053 1.8119 0 3.5391-1.6595 3.5391-4.5381 0-2.5908-1.2531-4.2672-3.2851-4.2672-0.88053 0-1.7272 0.44027-2.3876 1.0329h-0.06773l-0.16933-0.82973h-2.032zm3.8269-4.9445c-0.42333 0-0.89747-0.13547-1.3377-0.54187v-3.4375c0.49107-0.52493 0.93133-0.762 1.4393-0.762 0.99907 0 1.4563 0.762 1.4563 2.2691 0 1.7272-0.69427 2.4723-1.5579 2.4723z"/>
<path d="m41.876 86.121h2.4892v-5.6727c0.52493-0.54187 1.016-0.8128 1.4224-0.8128 0.7112 0 1.0329 0.37253 1.0329 1.5917v4.8937h2.4892v-5.6727c0.54187-0.54187 1.016-0.8128 1.4393-0.8128 0.7112 0 1.0329 0.37253 1.0329 1.5917v4.8937h2.4892v-5.2155c0-2.0997-0.8128-3.3867-2.6247-3.3867-1.1176 0-1.8965 0.64347-2.6416 1.4055-0.42333-0.89747-1.1345-1.4055-2.3199-1.4055-1.1007 0-1.8457 0.59267-2.54 1.2869h-0.06773l-0.16933-1.0837h-2.032z"/>
</g>
</svg>
