<svg width="480" height="480" viewBox="0 0 127 127" xmlns="http://www.w3.org/2000/svg"><path style="fill:#fff" d="m194.85 182.15-2.23 17.854h-18.956l16.852 16.852-2.7 21.61-24.468-24.47h-18.739l-3.053-2.148-.843 2.149h-7.364l5.288 5.287-18.594 47.366 179.369 179.37a214.643 214.643 0 0 0 149.67-159.28l-95.58-95.58-25.695 31.978-11.701-11.702-1.424.348-28.895-28.897-16.918 18.032 17.832 17.674-44.561 10.842-47.282-47.28-.008-.004z" transform="scale(.26458)"/><path d="M38.296 242.65c1.857 0 4.245-.663 6.035-1.923l-1.857-3.383c-1.193.664-2.255.995-3.382.995-1.857 0-3.316-.663-3.847-2.653h9.451c.1-.398.232-1.393.232-2.387 0-4.444-2.321-8.025-7.229-8.025-4.046 0-7.959 3.316-7.959 8.688 0 5.505 3.714 8.688 8.556 8.688zm-3.117-10.678c.332-1.658 1.393-2.388 2.653-2.388 1.724 0 2.255 1.128 2.255 2.388zm10.73 10.278h5.704v-16.581h-5.704zm2.852-18.637c1.857 0 3.183-1.194 3.183-2.852s-1.326-2.852-3.183-2.852-3.184 1.194-3.184 2.852 1.327 2.852 3.184 2.852zm10.587 25.477c5.903 0 9.617-2.454 9.617-6.035 0-3.051-2.388-4.311-6.533-4.311h-2.487c-1.658 0-2.321-.265-2.321-.995 0-.464.066-.663.398-.962.73.166 1.326.232 1.857.232 3.714 0 6.698-1.591 6.698-5.504a5.91 5.91 0 0 0-.265-1.725h2.387v-4.112h-6.168c-.796-.265-1.724-.398-2.653-.398-3.647 0-7.096 1.924-7.096 6.036a5.14 5.14 0 0 0 2.255 4.244v.133c-1.128.796-1.857 1.99-1.857 3.117 0 1.393.663 2.255 1.525 2.852v.133c-1.525.795-2.321 1.823-2.321 3.183 0 2.985 3.184 4.112 6.964 4.112zm.53-15.453c-1.06 0-1.79-.73-1.79-2.321 0-1.526.73-2.255 1.79-2.255 1.062 0 1.791.73 1.791 2.255 0 1.591-.73 2.321-1.79 2.321zm.399 11.938c-1.924 0-3.25-.464-3.25-1.525 0-.465.199-.796.597-1.194.464.132 1.06.199 2.387.199h1.294c1.425 0 2.221.132 2.221.995 0 .928-1.392 1.525-3.25 1.525zm9.054-3.325h5.704v-10.877c.862-.796 1.459-1.26 2.52-1.26 1.127 0 1.658.53 1.658 2.653v9.484h5.704v-10.214c0-4.112-1.526-6.765-5.173-6.765-2.255 0-3.847 1.127-4.975 2.122l.266-2.852v-5.372H69.33zm24.015.4c1.824 0 3.05-.332 3.913-.597l-.862-4.112c-.398.133-.929.265-1.46.265-1.06 0-1.989-.597-1.989-2.42v-5.671h3.78v-4.444h-3.78v-4.31h-4.709l-.663 4.31-2.52.2v4.244h2.188v5.77c0 4.046 1.791 6.765 6.102 6.765z" style="fill:#000;stroke:#fff;stroke-opacity:1" transform="translate(0 -170.203)" stroke="#fff" stroke-width="1.165" aria-label="eight"/></svg>