<svg width="480" height="480" viewBox="0 0 127 127" xmlns="http://www.w3.org/2000/svg"><path transform="scale(.26458)" d="m245.08 181.91-11.225 12.904 3.338 3.602-13.188 1.437 15.012 15.012-52.61 3.205 14.907 21.838.455 25.021H166.91L381.98 480h98.021V374.13l-167.19-167.19-21.748 19.723-19.723-19.723-.453.778-25.801-25.801z" fill="#fff" style="fill:#fff"/><path d="M51.386 245.87c4.643 0 7.096-2.388 7.096-5.505 0-2.984-2.254-4.244-4.244-4.974-1.658-.597-3.117-.929-3.117-1.79 0-.664.497-.93 1.459-.93 1.028 0 2.189.531 3.382 1.394l2.52-3.383c-1.459-1.094-3.382-2.188-6.101-2.188-3.913 0-6.566 2.122-6.566 5.372 0 2.719 2.255 4.145 4.178 4.907 1.658.664 3.184 1.062 3.184 1.924 0 .663-.464.995-1.658.995-1.16 0-2.52-.53-4.046-1.658l-2.52 3.515c1.724 1.393 4.31 2.321 6.433 2.321zm7.738-.4h5.704v-16.581h-5.704zm2.852-18.637c1.857 0 3.183-1.194 3.183-2.852s-1.326-2.852-3.183-2.852-3.184 1.194-3.184 2.852 1.327 2.852 3.184 2.852zm3.093 18.637h5.903l.928-2.321c.365-.962.763-1.924 1.128-2.852h.132c.498.928.962 1.923 1.46 2.852l1.326 2.321h6.101l-4.974-7.959 4.71-8.622h-5.904l-.795 2.322c-.299.928-.697 1.923-.995 2.851h-.133l-1.326-2.851-1.194-2.322h-6.102l4.71 7.96z" style="fill:#000;stroke:#fff;stroke-opacity:1" transform="translate(0 -173.559)" stroke="#fff" stroke-width="1.165" aria-label="six"/></svg>