<?xml version="1.0" encoding="UTF-8"?>
<svg width="480" height="480" version="1.1" viewBox="0 0 127 127" xmlns="http://www.w3.org/2000/svg" xmlns:cc="http://creativecommons.org/ns#" xmlns:dc="http://purl.org/dc/elements/1.1/" xmlns:rdf="http://www.w3.org/1999/02/22-rdf-syntax-ns#">
<metadata>
<rdf:RDF>
<cc:Work rdf:about="">
<dc:format>image/svg+xml</dc:format>
<dc:type rdf:resource="http://purl.org/dc/dcmitype/StillImage"/>
<dc:title/>
</cc:Work>
</rdf:RDF>
</metadata>
<g transform="translate(0 -170)">
<path transform="matrix(.26458 0 0 .26458 0 170)" d="m245.08 181.91l-11.225 12.904 3.3379 3.6016-13.188 1.4375 15.012 15.012-52.609 3.2051 14.906 21.838 0.45507 25.021h-34.859l215.07 215.07h98.021v-105.87l-167.19-167.19-21.748 19.723-19.723-19.723-0.45313 0.77734-25.801-25.801z" fill="#00b250"/>
<g transform="translate(0 -3.5587)" fill="#fff" stroke="#00b250" stroke-width="1.165" aria-label="six">
<path d="m51.386 245.87c4.6426 0 7.0965-2.3876 7.0965-5.5048 0-2.9845-2.255-4.2446-4.2446-4.9742-1.6581-0.5969-3.1171-0.92851-3.1171-1.7907 0-0.66322 0.49742-0.92851 1.4591-0.92851 1.028 0 2.1886 0.53057 3.3824 1.3928l2.5202-3.3824c-1.4591-1.0943-3.3824-2.1886-6.1016-2.1886-3.913 0-6.5659 2.1223-6.5659 5.3721 0 2.7192 2.255 4.1451 4.1783 4.9078 1.6581 0.66322 3.1835 1.0612 3.1835 1.9234 0 0.66322-0.46426 0.99483-1.6581 0.99483-1.1606 0-2.5202-0.53058-4.0457-1.6581l-2.5202 3.5151c1.7244 1.3928 4.3109 2.3213 6.4333 2.3213z"/>
<path d="m59.124 245.47h5.7037v-16.581h-5.7037zm2.8519-18.637c1.857 0 3.1835-1.1938 3.1835-2.8518 0-1.6581-1.3264-2.8519-3.1835-2.8519s-3.1835 1.1938-3.1835 2.8519c0 1.658 1.3264 2.8518 3.1835 2.8518z"/>
<path d="m65.069 245.47h5.9027l0.92851-2.3213c0.36477-0.96167 0.76271-1.9234 1.1275-2.8519h0.13264c0.49742 0.92851 0.96167 1.9234 1.4591 2.8519l1.3264 2.3213h6.1016l-4.9742-7.9587 4.7089-8.6219h-5.9027l-0.79587 2.3213c-0.29845 0.92851-0.69638 1.9233-0.99483 2.8518h-0.13264c-0.4311-0.92851-0.89535-1.9233-1.3264-2.8518l-1.1938-2.3213h-6.1016l4.7089 7.9587z"/>
</g>
</g>
</svg>
