<?xml version="1.0" encoding="UTF-8"?>
<svg width="480" height="480" version="1.1" viewBox="0 0 126.99999 127" xmlns="http://www.w3.org/2000/svg" xmlns:cc="http://creativecommons.org/ns#" xmlns:dc="http://purl.org/dc/elements/1.1/" xmlns:rdf="http://www.w3.org/1999/02/22-rdf-syntax-ns#">
<metadata>
<rdf:RDF>
<cc:Work rdf:about="">
<dc:format>image/svg+xml</dc:format>
<dc:type rdf:resource="http://purl.org/dc/dcmitype/StillImage"/>
<dc:title/>
</cc:Work>
</rdf:RDF>
</metadata>
<g transform="translate(0 -170)">
<path transform="matrix(.26458 0 0 .26458 0 170)" d="m220.33 181.96l-19.121 6.0625 12.77 13.242-15.045-1.7305 19.113 19.113-17.07 5.4102-12.984-12.984h-30.75l-3.9082-3.9082-18.727 9.6133 15.693 16.166-18.52 41.281 205.77 205.77h142.45v-125.82l-140.85-140.85-38.832 17.178-19.213-19.213-19.121 6.0606 20.354 21.105-3.3184 1.4688-32.756-32.756-0.55274 0.17578-25.379-25.379z" fill="#f2ba00"/>
<g transform="translate(0 -3.4947)" fill="#fff" stroke="#f2ba00" stroke-width="1.165" aria-label="nine">
<path d="m35.451 245.47h5.7037v-10.877c0.86219-0.79587 1.4591-1.2601 2.5202-1.2601 1.1275 0 1.6581 0.53058 1.6581 2.6529v9.4841h5.7037v-10.214c0-4.112-1.5254-6.7649-5.1731-6.7649-2.255 0-3.913 1.1275-5.2395 2.3876h-0.13264l-0.39793-1.9897h-4.6426z"/>
<path d="m52.635 245.47h5.7037v-16.581h-5.7037zm2.8519-18.637c1.857 0 3.1835-1.1938 3.1835-2.8518 0-1.6581-1.3264-2.8519-3.1835-2.8519-1.857 0-3.1835 1.1938-3.1835 2.8519 0 1.658 1.3264 2.8518 3.1835 2.8518z"/>
<path d="m60.039 245.47h5.7037v-10.877c0.86219-0.79587 1.4591-1.2601 2.5202-1.2601 1.1275 0 1.6581 0.53058 1.6581 2.6529v9.4841h5.7037v-10.214c0-4.112-1.5254-6.7649-5.1731-6.7649-2.255 0-3.913 1.1275-5.2395 2.3876h-0.13264l-0.39793-1.9897h-4.6426z"/>
<path d="m84.917 245.87c1.857 0 4.2446-0.66322 6.0353-1.9234l-1.857-3.3824c-1.1938 0.66322-2.255 0.99483-3.3824 0.99483-1.857 0-3.3161-0.66322-3.8467-2.6529h9.4509c0.09948-0.39794 0.23213-1.3928 0.23213-2.3876 0-4.4436-2.3213-8.025-7.2291-8.025-4.0457 0-7.9587 3.3161-7.9587 8.6882 0 5.5047 3.714 8.6882 8.5556 8.6882zm-3.1171-10.678c0.33161-1.658 1.3928-2.3876 2.6529-2.3876 1.7244 0 2.255 1.1275 2.255 2.3876z"/>
</g>
</g>
</svg>
