<svg width="480" height="480" viewBox="0 0 127 127" xmlns="http://www.w3.org/2000/svg"><path d="m61.523 108.504-3.047 3.047 2.9 2.9-3.294 9.431L61.198 127h42.052l-17.822-17.823-6.952 4.153-4.826-4.825-2.298 4.892-4.008-4.007-2.467 2.468-3.353-3.353z" fill="#4d4d4d"/><g fill="#fff" stroke="#4d4d4d" stroke-width=".794" aria-label="pm"><path d="M58.58 123.39h3.11v-3.069l-.105-1.671c.74.698 1.587 1.1 2.496 1.1 2.264 0 4.423-2.073 4.423-5.67 0-3.237-1.566-5.332-4.105-5.332-1.1 0-2.158.55-2.983 1.29h-.085l-.212-1.036H58.58zm4.782-6.179c-.529 0-1.121-.169-1.671-.677v-4.295c.613-.656 1.163-.952 1.798-.952 1.248 0 1.82.952 1.82 2.835 0 2.158-.868 3.09-1.947 3.09zM70.688 119.497h3.11v-7.088c.656-.677 1.27-1.015 1.778-1.015.888 0 1.29.465 1.29 1.988v6.115h3.11v-7.088c.678-.677 1.27-1.016 1.799-1.016.889 0 1.29.466 1.29 1.99v6.114h3.11v-6.517c0-2.623-1.015-4.232-3.279-4.232-1.396 0-2.37.805-3.3 1.757-.53-1.122-1.418-1.757-2.9-1.757-1.375 0-2.305.741-3.173 1.608h-.085l-.211-1.354h-2.54z" stroke-width=".9921030000000001"/></g></svg>