<?xml version="1.0" encoding="UTF-8"?>
<svg width="480" height="480" version="1.1" viewBox="0 0 127 127" xmlns="http://www.w3.org/2000/svg" xmlns:cc="http://creativecommons.org/ns#" xmlns:dc="http://purl.org/dc/elements/1.1/" xmlns:rdf="http://www.w3.org/1999/02/22-rdf-syntax-ns#">
<metadata>
<rdf:RDF>
<cc:Work rdf:about="">
<dc:format>image/svg+xml</dc:format>
<dc:type rdf:resource="http://purl.org/dc/dcmitype/StillImage"/>
<dc:title/>
</cc:Work>
</rdf:RDF>
</metadata>
<g transform="translate(0 -170)">
<path transform="matrix(.26458 0 0 .26458 0 170)" d="m213.99 182.33l-18.498 12.807-19.268-0.39063-11.061 33.906h-23.229l17.516 17.516-9.2461 28.344 205.49 205.49h124.3v-115.39l-151.19-151.19-33.459 4.3359-10.303-10.303-24.74 20.143-20.141-20.141h-1.0488l-25.127-25.127z" fill="#00b6cb"/>
<g transform="translate(0 -3.4189)" fill="#fff" stroke="#00b6cb" stroke-width="1.165" aria-label="five">
<path d="m40.325 245.47h5.7037v-12.137h2.7855v-4.4436h-2.7855v-0.39793c0-1.5586 0.66322-2.056 1.7244-2.056 0.53058 0 1.1275 0.13264 1.6581 0.33161l0.99483-4.1783c-0.72954-0.26529-1.9897-0.5969-3.5151-0.5969-4.9078 0-6.5659 3.1503-6.5659 6.6985v0.23213l-2.1886 0.16581v4.2446h2.1886z"/>
<path d="m50.925 245.47h5.7037v-16.581h-5.7037zm2.8519-18.637c1.857 0 3.1835-1.1938 3.1835-2.8518 0-1.6581-1.3264-2.8519-3.1835-2.8519-1.857 0-3.1835 1.1938-3.1835 2.8519 0 1.658 1.3264 2.8518 3.1835 2.8518z"/>
<path d="m62.821 245.47h6.5659l5.2395-16.581h-5.4384l-1.7907 7.2291c-0.39793 1.6581-0.79587 3.3824-1.1938 5.1731h-0.13264c-0.39793-1.7907-0.79587-3.5151-1.1938-5.1731l-1.7907-7.2291h-5.7037z" fill="#fff" stroke-width="1.165"/>
<path d="m82.231 245.87c1.857 0 4.2446-0.66322 6.0353-1.9234l-1.857-3.3824c-1.1938 0.66322-2.255 0.99483-3.3824 0.99483-1.857 0-3.3161-0.66322-3.8467-2.6529h9.4509c0.09948-0.39794 0.23213-1.3928 0.23213-2.3876 0-4.4436-2.3213-8.025-7.2291-8.025-4.0457 0-7.9587 3.3161-7.9587 8.6882 0 5.5047 3.714 8.6882 8.5556 8.6882zm-3.1171-10.678c0.33161-1.658 1.3928-2.3876 2.6529-2.3876 1.7244 0 2.255 1.1275 2.255 2.3876z" fill="#fff" stroke-width="1.165"/>
</g>
</g>
</svg>
