<?xml version="1.0" encoding="UTF-8"?>
<svg width="480" height="480" version="1.1" viewBox="0 0 127 127" xmlns="http://www.w3.org/2000/svg" xmlns:cc="http://creativecommons.org/ns#" xmlns:dc="http://purl.org/dc/elements/1.1/" xmlns:rdf="http://www.w3.org/1999/02/22-rdf-syntax-ns#">
<metadata>
<rdf:RDF>
<cc:Work rdf:about="">
<dc:format>image/svg+xml</dc:format>
<dc:type rdf:resource="http://purl.org/dc/dcmitype/StillImage"/>
<dc:title/>
</cc:Work>
</rdf:RDF>
</metadata>
<path d="m73.517 108.53c-1.6474 2.3838-2.1423 4.07-2.065 5.3056l-4.3677-4.3672-1.9094 1.91-1.7358-1.7363-3.2422 3.2422 1.6449 1.6449-2.4412 4.6778 7.7892 7.7892h35.901l-17.794-17.794-6.9536 4.1543z" fill="#4d4d4d"/>
<g transform="matrix(1.2497 0 0 1.2497 18.352 11.898)" fill="#fff" stroke="#4d4d4d" stroke-width=".79375" aria-label="am">
<path d="m34.957 86.324c0.94827 0 1.7272-0.44027 2.4384-1.0668h0.06773l0.16933 0.8636h2.032v-4.8091c0-2.5739-1.1853-3.7931-3.3359-3.7931-1.3208 0-2.5231 0.4572-3.5899 1.1007l0.89747 1.6425c0.8128-0.47413 1.5071-0.762 2.2183-0.762 0.9144 0 1.27 0.47413 1.3208 1.2192-3.3189 0.33867-4.7244 1.3039-4.7244 3.0649 0 1.4224 0.9652 2.54 2.5061 2.54zm0.84667-1.9304c-0.59267 0-0.9652-0.254-0.9652-0.79587 0-0.64347 0.57573-1.1515 2.3368-1.3885v1.4732c-0.44027 0.44027-0.8128 0.7112-1.3716 0.7112z"/>
<path d="m41.77 86.121h2.4892v-5.6727c0.52493-0.54187 1.016-0.8128 1.4224-0.8128 0.7112 0 1.0329 0.37253 1.0329 1.5917v4.8937h2.4892v-5.6727c0.54187-0.54187 1.016-0.8128 1.4393-0.8128 0.7112 0 1.0329 0.37253 1.0329 1.5917v4.8937h2.4892v-5.2155c0-2.0997-0.8128-3.3867-2.6247-3.3867-1.1176 0-1.8965 0.64347-2.6416 1.4055-0.42333-0.89747-1.1345-1.4055-2.3199-1.4055-1.1007 0-1.8457 0.59267-2.54 1.2869h-0.06773l-0.16933-1.0837h-2.032z"/>
</g>
</svg>
