<svg width="400" height="400" viewBox="0 0 105.833 105.833" xmlns="http://www.w3.org/2000/svg"><path style="fill:#000;stroke-width:1.56087;stroke-linejoin:round;stroke-opacity:0;paint-order:markers fill stroke" d="M-18.838 67.103H3.406v22.244h-22.244z" transform="matrix(4.75783 0 0 4.75783 89.627 -319.264)"/><path style="opacity:1;fill:#be3729;stroke-width:.09071" d="m-7.716 67.103 2.225 2.224-2.225 2.225-2.224-2.225z" transform="matrix(4.75783 0 0 4.75783 89.627 -319.264)"/><path style="opacity:1;fill:#dc2919;stroke-width:.09071" d="m-9.94 69.327 2.224 2.225-2.224 2.224-2.225-2.224z" transform="matrix(4.75783 0 0 4.75783 89.627 -319.264)"/><path style="opacity:1;fill:#e54b3a;stroke-width:.09071" d="m-12.165 71.552 2.225 2.224-2.225 2.225-2.224-2.225z" transform="matrix(4.75783 0 0 4.75783 89.627 -319.264)"/><path style="opacity:1;fill:#e56934;stroke-width:.09071" d="m-14.389 73.776 2.224 2.225-2.224 2.224L-16.613 76z" transform="matrix(4.75783 0 0 4.75783 89.627 -319.264)"/><path style="opacity:1;fill:#e57c21;stroke-width:.09071" d="m-16.613 76 2.224 2.225-2.224 2.224-2.225-2.224z" transform="matrix(4.75783 0 0 4.75783 89.627 -319.264)"/><path style="opacity:1;fill:#e58a21;stroke-width:.09071" d="m-14.389 78.225 2.224 2.224-2.224 2.225-2.224-2.225z" transform="matrix(4.75783 0 0 4.75783 89.627 -319.264)"/><path style="opacity:1;fill:#f19a11;stroke-width:.09071" d="m-12.165 80.45 2.225 2.224-2.225 2.224-2.224-2.224z" transform="matrix(4.75783 0 0 4.75783 89.627 -319.264)"/><path style="opacity:1;fill:#f0ae0e;stroke-width:.09071" d="m-9.94 82.674 2.224 2.224-2.224 2.225-2.225-2.225z" transform="matrix(4.75783 0 0 4.75783 89.627 -319.264)"/><path style="opacity:1;fill:#f0c30e;stroke-width:.09071" d="m-7.716 84.898 2.225 2.225-2.225 2.224-2.224-2.224z" transform="matrix(4.75783 0 0 4.75783 89.627 -319.264)"/><path style="opacity:1;fill:#f19a11;stroke-width:.09071" d="m-5.491 82.674 2.224 2.224-2.224 2.225-2.225-2.225z" transform="matrix(4.75783 0 0 4.75783 89.627 -319.264)"/><path style="opacity:1;fill:#f0ae0e;stroke-width:.09071" d="m-5.491 82.674 2.224 2.224-2.224 2.225-2.225-2.225z" transform="matrix(4.75783 0 0 4.75783 89.627 -319.264)"/><path style="opacity:1;fill:#f19a11;stroke-width:.09071" d="m-3.267 80.45 2.224 2.224-2.224 2.224-2.224-2.224z" transform="matrix(4.75783 0 0 4.75783 89.627 -319.264)"/><path style="opacity:1;fill:#e58a21;stroke-width:.09071" d="m-9.94 78.225 2.224 2.224-2.224 2.225-2.225-2.225zM-1.043 78.225l2.225 2.224-2.225 2.225-2.224-2.225z" transform="matrix(4.75783 0 0 4.75783 89.627 -319.264)"/><path style="opacity:1;fill:#e57c21;stroke-width:.09071" d="m-12.165 76 2.225 2.225-2.225 2.224-2.224-2.224zM-7.716 76l2.225 2.225-2.225 2.224-2.224-2.224zM1.182 76l2.224 2.225-2.224 2.224-2.225-2.224z" transform="matrix(4.75783 0 0 4.75783 89.627 -319.264)"/><path style="opacity:1;fill:#e56934;stroke-width:.09071" d="m-1.043 73.776 2.225 2.225-2.225 2.224-2.224-2.224z" transform="matrix(4.75783 0 0 4.75783 89.627 -319.264)"/><path style="opacity:1;fill:#e54b3a;stroke-width:.09071" d="m-7.716 71.552 2.225 2.224-2.225 2.225-2.224-2.225z" transform="matrix(4.75783 0 0 4.75783 89.627 -319.264)"/><path style="opacity:1;fill:#dc2919;stroke-width:.09071" d="m-3.267 71.552 2.224 2.224-2.224 2.225-2.224-2.225z" transform="matrix(4.75783 0 0 4.75783 89.627 -319.264)"/><path style="opacity:1;fill:#e54b3a;stroke-width:.09071" d="m-3.267 71.552 2.224 2.224-2.224 2.225-2.224-2.225z" transform="matrix(4.75783 0 0 4.75783 89.627 -319.264)"/><path style="opacity:1;fill:#dc2919;stroke-width:.09071" d="m-5.491 69.327 2.224 2.225-2.224 2.224-2.225-2.224z" transform="matrix(4.75783 0 0 4.75783 89.627 -319.264)"/></svg>